<?xml version="1.0" standalone="no"?>
<!DOCTYPE svg PUBLIC "-//W3C//DTD SVG 20010904//EN"
 "http://www.w3.org/TR/2001/REC-SVG-20010904/DTD/svg10.dtd">
<svg version="1.0" xmlns="http://www.w3.org/2000/svg"
 width="1261.000000pt" height="301.000000pt" viewBox="0 0 1261.000000 301.000000"
 preserveAspectRatio="xMidYMid meet">

<g transform="translate(0.000000,301.000000) scale(0.100000,-0.100000)"
fill="#000000" stroke="none">
<path d="M1515 2814 c-316 -36 -445 -67 -622 -150 -436 -202 -778 -637 -855
-1085 -11 -60 -10 -72 2 -79 8 -6 104 -10 213 -10 l197 0 0 -52 c0 -74 32
-218 69 -314 39 -100 132 -243 199 -306 27 -26 48 -49 45 -51 -7 -7 76 -74
156 -128 95 -62 197 -105 336 -139 61 -15 103 -30 95 -33 -94 -35 -408 -42
-553 -14 -179 36 -364 112 -519 214 -43 28 -76 43 -91 41 -21 -3 -23 -6 -15
-37 13 -46 171 -204 273 -270 113 -74 341 -184 465 -225 199 -66 290 -80 525
-80 354 0 652 61 969 200 457 200 724 552 780 1027 l6 47 -223 0 -223 0 -12
85 c-74 509 -467 883 -979 933 l-88 8 58 27 c175 80 341 112 545 105 240 -9
383 -61 692 -252 81 -50 110 -57 110 -26 0 36 -133 152 -300 263 -240 160
-514 260 -810 297 -77 9 -373 12 -445 4z m-402 -1331 c-116 -2 -310 -2 -430 0
-120 1 -24 2 212 2 237 0 335 -1 218 -2z m1565 -110 c-21 -2 -57 -2 -80 0 -24
2 -7 4 37 4 44 0 63 -2 43 -4z"/>
<path d="M9180 2650 c-145 -30 -219 -62 -287 -123 -12 -11 -20 -24 -16 -30 3
-6 1 -7 -5 -3 -16 10 -91 -101 -109 -163 -19 -68 -13 -160 14 -222 53 -117
151 -179 323 -204 301 -44 512 -122 555 -205 24 -46 19 -103 -11 -139 -40 -48
-87 -57 -191 -37 -173 35 -292 80 -569 219 -50 25 -90 18 -104 -19 -12 -29
-13 -160 -3 -294 l6 -93 66 -30 c275 -125 513 -146 808 -72 150 38 246 89 330
178 120 127 167 257 144 401 -23 145 -113 265 -243 326 -36 17 -140 47 -243
70 -221 50 -242 56 -256 82 -9 17 -7 25 14 45 21 22 34 25 98 26 62 1 92 -5
183 -37 l109 -38 83 89 c46 48 83 91 84 95 0 11 -78 62 -155 100 -82 41 -176
73 -259 87 -91 17 -269 12 -366 -9z"/>
<path d="M4630 2628 c-24 -17 -58 -69 -123 -188 -49 -91 -219 -400 -378 -686
-159 -287 -289 -527 -289 -533 0 -16 162 -15 182 2 8 6 37 48 63 92 27 44 55
86 64 93 11 9 95 12 342 12 l328 0 19 -27 c11 -16 32 -53 47 -83 15 -30 36
-65 48 -77 l20 -23 349 0 c191 0 348 2 348 5 0 3 -125 232 -278 508 -154 276
-314 567 -357 647 -139 260 -159 280 -282 280 -56 0 -77 -4 -103 -22z m-26
-834 c58 -96 106 -177 106 -180 0 -2 -99 -4 -221 -4 -121 0 -219 4 -217 8 10
26 214 352 220 352 4 0 54 -79 112 -176z"/>
<path d="M5722 2638 c-17 -17 -17 -1399 0 -1416 9 -9 95 -12 325 -12 l313 0 0
720 0 720 -313 0 c-230 0 -316 -3 -325 -12z"/>
<path d="M6590 1930 l0 -720 109 0 c78 0 112 4 120 13 7 9 12 121 13 346 l3
332 199 -162 c109 -88 202 -157 206 -152 4 4 133 166 286 358 l279 350 3 -542
2 -543 320 0 320 0 0 720 0 721 -316 -3 -316 -3 -31 -36 c-18 -19 -104 -126
-192 -237 -94 -119 -165 -200 -172 -197 -7 2 -135 107 -283 232 -149 125 -281
231 -293 235 -12 3 -75 6 -139 7 l-118 1 0 -720z"/>
<path d="M10921 2633 c-11 -10 -114 -189 -229 -398 -115 -209 -283 -513 -373
-675 -90 -162 -170 -307 -176 -322 l-13 -28 85 0 c80 0 86 2 120 31 19 17 35
35 35 39 0 16 72 128 85 134 8 3 156 6 329 7 280 1 319 0 341 -15 15 -10 43
-53 66 -99 22 -44 45 -85 52 -89 6 -4 167 -8 356 -8 334 0 343 1 338 19 -2 11
-158 296 -345 633 -186 337 -354 642 -372 678 -54 108 -57 110 -176 110 -82 0
-106 -3 -123 -17z m-17 -839 c58 -96 106 -179 106 -185 0 -5 -90 -9 -221 -9
-181 0 -220 2 -217 14 5 20 212 355 220 356 4 0 54 -79 112 -176z"/>
<path d="M3484 1088 c3 -13 6 -42 6 -65 l0 -43 4460 0 4460 0 0 65 0 65 -4466
0 -4466 0 6 -22z"/>
</g>
</svg>
