<svg version="1.1" id="Layer_1" xmlns="http://www.w3.org/2000/svg" xmlns:xlink="http://www.w3.org/1999/xlink" x="0px" y="0px"
	 width="100%" viewBox="0 0 1261 301" enable-background="new 0 0 1261 301" xml:space="preserve">
<path fill="#FEFEFE" opacity="1.000000" stroke="none" 
	d="
M829.000000,302.000000 
	C552.666687,302.000000 276.833344,302.000000 1.000000,302.000000 
	C1.000000,201.666672 1.000000,101.333336 1.000000,1.000000 
	C421.333344,1.000000 841.666687,1.000000 1262.000000,1.000000 
	C1262.000000,101.333336 1262.000000,201.666672 1262.000000,302.000000 
	C1117.833374,302.000000 973.666687,302.000000 829.000000,302.000000 
M886.629639,125.566986 
	C886.050049,125.389366 885.470459,125.211746 884.303589,124.781616 
	C882.581482,125.206581 880.859314,125.631546 878.731506,126.481079 
	C878.506042,127.021866 878.280640,127.562653 877.550781,128.521698 
	C877.386292,129.385071 877.221802,130.248444 876.690369,131.771286 
	C877.091553,143.478043 877.492737,155.184799 877.887512,166.704208 
	C903.236511,180.645065 929.398682,185.213928 957.036133,179.587433 
	C971.734375,176.595108 986.188232,172.551117 997.438416,161.601379 
	C1008.626526,150.712067 1015.114685,137.300186 1013.565063,121.858688 
	C1011.508728,101.367500 997.388672,87.340874 977.054810,82.785667 
	C965.548340,80.207993 953.993896,77.822021 942.570740,74.918304 
	C940.761719,74.458458 938.298096,71.653511 938.375977,70.040848 
	C938.457764,68.345779 941.043152,65.681702 942.862122,65.373199 
	C947.538574,64.580055 952.610779,63.904243 957.133057,64.922096 
	C964.436768,66.566017 971.426392,69.605820 979.283630,72.308907 
	C984.386780,66.744820 990.301880,60.295483 996.344238,53.707367 
	C995.518250,52.916962 994.998718,52.271751 994.346375,51.817017 
	C970.059753,34.887218 943.483704,29.632280 914.682922,36.603603 
	C904.343750,39.106251 894.040466,42.018925 886.315491,51.196201 
	C885.021423,52.713070 883.653931,54.173786 882.444397,55.755249 
	C864.261719,79.528481 881.263000,106.680695 903.438354,109.570457 
	C912.475098,110.748070 921.562195,112.076988 930.369568,114.337784 
	C941.064575,117.083107 952.101501,119.293900 961.271118,126.186668 
	C966.818176,130.356308 968.769165,136.202362 966.433960,141.897629 
	C964.125916,147.526657 958.319153,150.654144 951.763245,149.682327 
	C931.840698,146.729156 913.198181,140.159927 895.848511,129.900101 
	C894.373901,129.028061 892.569946,128.712845 890.642761,127.618401 
	C890.080261,127.440681 889.517700,127.262962 888.640747,126.583427 
	C888.079163,126.415932 887.517517,126.248444 886.629639,125.566986 
M73.890862,222.880859 
	C73.890862,222.880859 74.119194,223.109207 74.119194,223.109207 
	C74.119194,223.109207 74.439629,223.072067 74.893051,223.610229 
	C92.012390,240.617004 112.841728,250.008133 136.686935,253.347534 
	C135.786179,254.058975 135.035629,254.417770 134.244461,254.590775 
	C110.165619,259.855560 86.369057,258.837250 62.864117,251.357956 
	C48.159615,246.678986 34.728107,239.565674 22.225630,230.548492 
	C20.776667,229.503448 18.342426,229.824524 16.364981,229.512238 
	C16.698204,231.420212 16.467510,233.705826 17.452831,235.177094 
	C26.253574,248.318481 38.373760,257.734650 51.930977,265.567291 
	C78.632416,280.993896 106.930099,291.341980 138.071930,291.949951 
	C169.468124,292.562866 199.924606,287.201660 229.346634,276.094635 
	C253.365204,267.027435 275.086334,254.573578 291.475739,234.228790 
	C307.888123,213.855515 317.177490,190.657745 318.793243,163.896484 
	C303.990234,163.896484 289.104309,163.896484 274.243988,163.896484 
	C271.973328,135.156311 261.195770,110.971382 240.598602,91.424911 
	C220.172974,72.041245 195.635422,62.444275 166.201874,61.577934 
	C191.646774,48.750584 216.900589,44.775589 243.439606,49.657780 
	C261.244720,52.933262 276.737457,61.627686 291.942963,70.901077 
	C295.632690,73.151344 299.166016,75.671867 302.943237,77.756523 
	C304.078857,78.383270 305.795563,77.957062 307.246063,78.013222 
	C307.049622,76.701782 307.204834,75.180611 306.576355,74.126831 
	C305.571381,72.441750 304.182953,70.916939 302.720581,69.583183 
	C277.279480,46.379433 247.959122,30.194469 214.257812,22.993996 
	C183.267975,16.372843 152.044540,17.959673 121.099876,23.952248 
	C63.761238,35.056141 14.671332,84.725212 3.923091,142.035904 
	C2.050498,152.020767 2.050498,152.020767 12.185282,152.020752 
	C22.936865,152.020752 33.688450,152.020752 44.494938,152.020752 
	C45.372631,179.686981 54.930046,203.115219 73.890862,222.880859 
M962.500000,190.002167 
	C757.713623,190.002167 552.927246,190.002167 348.366455,190.002167 
	C348.606323,194.663834 348.822632,198.867249 349.036438,203.022491 
	C646.691345,203.022491 943.819214,203.022491 1241.472534,203.022491 
	C1241.472534,198.630142 1241.472534,194.437500 1241.472534,190.002167 
	C1148.785889,190.002167 1056.142944,190.002167 962.500000,190.002167 
M714.109863,60.406368 
	C705.583923,53.218605 697.090210,45.991871 688.498352,38.883804 
	C687.162720,37.778812 685.397522,36.558907 683.798645,36.512653 
	C675.570801,36.274639 667.332336,36.402306 659.124023,36.402306 
	C659.124023,84.359497 659.124023,132.064056 659.124023,180.014587 
	C665.673035,180.014587 671.823059,179.782455 677.944885,180.097900 
	C681.890564,180.301193 683.135925,179.086761 683.097595,175.076691 
	C682.912964,155.755493 683.014587,136.431534 683.014587,117.108559 
	C683.014587,115.194572 683.014526,113.280586 683.014526,110.571030 
	C696.851501,121.810806 709.933594,132.437347 723.228455,143.236740 
	C742.438232,119.145813 761.221680,95.589523 780.005127,72.033241 
	C780.353821,72.171669 780.702454,72.310104 781.051147,72.448532 
	C781.051147,108.133423 781.051147,143.818314 781.051147,179.755493 
	C802.629700,179.755493 823.676758,179.755493 844.888794,179.755493 
	C844.888794,131.792984 844.888794,84.080246 844.888794,36.395458 
	C824.991211,36.395458 805.391785,36.463394 785.793823,36.326092 
	C782.663513,36.304161 780.603027,37.146545 778.649597,39.681458 
	C770.523193,50.227180 762.176941,60.603764 753.890015,71.025375 
	C750.298889,75.541420 746.656006,80.016289 742.926880,84.646103 
	C733.220825,76.494720 723.928345,68.690659 714.109863,60.406368 
M444.500000,159.019196 
	C455.997650,159.019196 467.496643,159.114258 478.991913,158.949539 
	C481.719116,158.910446 483.122131,159.742630 484.305786,162.206528 
	C486.532074,166.840897 489.381653,171.175797 491.609009,175.809738 
	C493.077515,178.864929 494.836060,180.152130 498.436859,180.116776 
	C518.930603,179.915527 539.427368,180.027466 559.923096,180.002777 
	C561.485718,180.000885 563.048096,179.765518 565.186523,179.591934 
	C563.848511,177.002701 562.921814,175.092041 561.893799,173.237503 
	C538.697998,131.390259 515.129456,89.742508 492.569427,47.555420 
	C487.632233,38.322891 482.359802,35.054508 472.144409,35.623631 
	C464.940491,36.024982 461.221069,37.691982 457.620300,44.346901 
	C434.066925,87.877686 409.859589,131.054581 385.892273,174.361679 
	C385.007446,175.960464 384.394562,177.709778 383.377350,180.019196 
	C388.682526,180.019196 393.008240,179.845749 397.312500,180.075180 
	C400.637878,180.252411 402.831543,179.431824 404.499908,176.214264 
	C406.940552,171.507385 410.252014,167.255569 412.750946,162.574173 
	C414.335449,159.605835 416.330719,158.855392 419.507111,158.944778 
	C427.499084,159.169662 435.501678,159.019196 444.500000,159.019196 
M433.781128,253.494049 
	C433.781128,246.929504 433.781128,240.364960 433.781128,233.800415 
	C435.165710,234.582062 435.636444,235.547668 436.022430,236.546021 
	C439.680206,246.006256 443.449493,255.426590 446.895233,264.963684 
	C447.943695,267.865631 449.829041,268.639191 452.175751,267.821594 
	C453.382874,267.401031 454.385284,265.596466 454.931519,264.202301 
	C459.024200,253.756149 462.979919,243.256348 466.978485,232.773315 
	C467.309662,232.839844 467.640808,232.906372 467.971985,232.972885 
	C467.971985,244.477753 467.971985,255.982605 467.971985,267.737610 
	C470.663269,267.737610 472.889282,267.737610 475.630402,267.737610 
	C475.630402,265.844604 475.630432,264.212219 475.630432,262.579803 
	C475.630432,250.762970 475.631409,238.946136 475.629974,227.129303 
	C475.629089,219.969330 475.611481,219.780106 468.582886,220.370911 
	C466.930206,220.509827 464.795837,222.055725 463.981262,223.552139 
	C462.247559,226.737106 461.245117,230.318497 459.924194,233.730133 
	C457.101318,241.021103 454.266418,248.307434 451.323456,255.886780 
	C450.645386,255.125931 450.337921,254.921692 450.231537,254.641174 
	C446.812317,245.623230 443.387421,236.607254 440.017151,227.570953 
	C436.913330,219.249146 435.730957,218.635422 426.743103,221.091217 
	C426.743103,236.586975 426.743103,252.129333 426.743103,267.690735 
	C429.175446,267.690735 431.254211,267.690735 433.780823,267.690735 
	C433.780823,263.083221 433.780823,258.786438 433.781128,253.494049 
M635.997620,148.500000 
	C635.997620,111.078133 635.997620,73.656265 635.997620,36.002449 
	C615.635376,36.002449 595.830383,36.104626 576.028137,35.916531 
	C572.051331,35.878754 570.910828,37.044567 570.922119,41.013416 
	C571.048889,85.668022 571.049683,130.323242 570.921265,174.977844 
	C570.909851,178.956528 572.064087,180.121872 576.032776,180.081680 
	C594.692627,179.892654 613.355469,180.001953 632.017212,179.988312 
	C633.281616,179.987381 634.545837,179.850998 635.997620,179.766724 
	C635.997620,169.454010 635.997620,159.477005 635.997620,148.500000 
M1038.286133,169.828934 
	C1039.433472,167.999161 1040.865356,166.285751 1041.670532,164.316162 
	C1043.528320,159.772537 1046.714355,158.776505 1051.437988,158.896454 
	C1065.261963,159.247452 1079.100586,158.981552 1092.933228,159.038849 
	C1099.409546,159.065689 1107.086792,157.184952 1112.014648,160.012283 
	C1116.719482,162.711578 1118.748413,170.307846 1121.585815,175.936829 
	C1123.141846,179.023880 1125.027344,180.139526 1128.536865,180.108673 
	C1148.867920,179.929886 1169.201416,180.026474 1189.534058,180.011169 
	C1191.098267,180.009995 1192.662476,179.864609 1194.830811,179.755981 
	C1193.964600,177.837204 1193.520996,176.635330 1192.907349,175.527664 
	C1169.639526,133.521133 1146.355957,91.523277 1123.074463,49.524261 
	C1120.601929,45.063736 1119.161011,38.744167 1115.378174,36.645134 
	C1111.280884,34.371613 1104.977417,36.320118 1099.678223,35.897976 
	C1094.380249,35.475937 1091.454468,36.961876 1088.642334,42.122429 
	C1064.397827,86.613625 1039.672852,130.842850 1015.111084,175.161331 
	C1014.424561,176.400162 1013.960327,177.762253 1012.976990,180.021317 
	C1016.004456,180.021317 1018.305725,179.700058 1020.485718,180.078140 
	C1028.948242,181.545792 1034.943970,178.802460 1038.286133,169.828934 
M682.921936,246.402405 
	C682.921936,249.297485 682.921936,252.192566 682.921936,255.087662 
	C675.794678,245.310043 669.350464,235.470352 663.628174,225.227341 
	C660.730835,220.040833 657.092224,219.435089 652.027588,220.788147 
	C652.027588,236.483139 652.027588,252.029648 652.027588,267.692993 
	C654.427429,267.692993 656.489868,267.692993 659.081055,267.692993 
	C659.081055,255.903183 659.081055,244.414963 659.081055,231.411652 
	C666.116638,242.763153 672.610840,252.605911 678.396851,262.848755 
	C681.223572,267.852905 684.627197,269.014984 689.746826,267.518433 
	C689.746826,251.825851 689.746826,236.277878 689.746826,220.628296 
	C687.361084,220.628296 685.314453,220.628296 682.921875,220.628296 
	C682.921875,229.152145 682.921875,237.291794 682.921936,246.402405 
M552.589661,267.485321 
	C555.298523,267.666687 558.007385,267.848053 560.685852,268.027374 
	C560.685852,251.720505 560.685852,236.167557 560.685852,220.517181 
	C558.364136,220.517181 556.439148,220.517181 553.830078,220.517181 
	C553.830078,232.229980 553.830078,243.688110 553.830078,255.146240 
	C546.723267,245.210861 540.560669,235.144623 534.366211,225.098068 
	C530.921021,219.510452 529.603882,219.072922 523.131897,221.103500 
	C523.131897,236.680786 523.131897,252.225571 523.131897,267.587036 
	C525.650452,267.587036 527.701843,267.587036 530.081116,267.587036 
	C530.081116,255.772354 530.081116,244.374374 530.081116,231.451920 
	C537.936035,244.093460 545.011047,255.479736 552.589661,267.485321 
M1038.730469,267.848419 
	C1045.507446,267.550079 1052.435547,268.036865 1059.025757,266.768066 
	C1068.746094,264.896576 1075.283691,256.001404 1075.867188,245.787506 
	C1076.547729,233.874405 1072.445435,225.827850 1063.583008,222.467590 
	C1055.306519,219.329468 1046.694458,220.178741 1037.972412,220.458435 
	C1037.972412,236.395645 1037.972412,251.822296 1038.730469,267.848419 
M595.140137,268.829468 
	C598.506409,267.959656 601.935852,267.269714 605.204956,266.122864 
	C606.355774,265.719116 607.889343,264.223450 607.925903,263.179962 
	C608.168335,256.262390 608.051392,249.332245 608.051392,242.325806 
	C602.029175,242.325806 596.634521,242.325806 591.235840,242.325806 
	C591.235840,244.587769 591.235840,246.500778 591.235840,248.711853 
	C594.430664,248.852219 597.334045,248.979797 600.691650,249.127319 
	C600.691650,251.351822 600.445618,253.188843 600.738525,254.935516 
	C601.562134,259.847412 598.897400,261.387970 594.670044,261.871185 
	C586.138550,262.846436 579.378601,257.673981 578.042114,249.007385 
	C576.320129,237.840912 581.217285,228.323166 590.277588,227.161728 
	C595.579346,226.482101 601.146729,227.874496 606.597534,228.335022 
	C607.055237,221.076553 606.577271,220.196777 598.763611,220.010010 
	C593.865967,219.892944 588.581482,219.921738 584.100464,221.583527 
	C573.039246,225.685593 567.595459,238.063431 570.196594,251.048996 
	C572.515076,262.623444 580.963806,268.884003 595.140137,268.829468 
M774.082092,221.014969 
	C767.497620,220.668045 760.913086,220.321121 753.997925,219.956787 
	C753.997925,236.380814 753.997925,251.930023 753.997925,267.594177 
	C756.459656,267.594177 758.648926,267.594177 761.235596,267.594177 
	C761.235596,261.240417 761.235596,255.295029 761.235596,249.425232 
	C765.959290,247.981979 769.067017,249.616730 771.291992,253.304871 
	C773.011353,256.154877 775.087646,258.888489 776.238892,261.960999 
	C778.429688,267.808289 782.418884,269.123444 788.735046,267.483002 
	C784.028564,260.233490 779.458923,253.194687 774.805969,246.027573 
	C780.392334,243.696411 783.786804,239.172195 783.399780,232.356339 
	C783.083069,226.779556 780.096497,223.093704 774.082092,221.014969 
M385.134430,223.277023 
	C384.329651,219.011337 380.879333,220.049271 378.372070,220.406082 
	C376.874176,220.619247 374.959534,222.257462 374.365814,223.716415 
	C371.796783,230.029099 369.627136,236.505264 367.347137,242.934357 
	C364.466614,251.056763 361.620026,259.191193 358.575623,267.840790 
	C362.404755,267.417175 366.254517,270.106171 368.037079,264.637848 
	C370.867310,255.955734 371.049316,256.015106 380.130920,256.015106 
	C380.797058,256.015106 381.487274,256.130157 382.125549,255.996872 
	C387.243011,254.928207 389.403564,257.335632 390.718201,262.131744 
	C392.610382,269.035126 393.054626,268.997711 400.753754,267.280090 
	C395.631683,252.839996 390.520813,238.431534 385.134430,223.277023 
M953.000916,224.472382 
	C947.893860,238.790787 942.786865,253.109192 937.415466,268.168823 
	C941.460144,267.330505 945.264160,270.078186 947.004395,264.790771 
	C949.914856,255.947174 950.120972,256.015015 959.476074,256.015076 
	C959.975708,256.015076 960.491211,256.096497 960.972534,256.002502 
	C965.928162,255.034943 968.362183,257.008240 969.676819,261.985718 
	C971.496033,268.873566 971.882812,268.771393 979.800781,267.436798 
	C974.677124,252.974991 969.541870,238.579208 964.500000,224.150787 
	C963.672852,221.783813 962.908936,219.913223 959.786743,220.169006 
	C956.973328,220.399536 953.908325,219.718201 953.000916,224.472382 
M808.047729,266.756927 
	C812.805664,269.328125 815.579163,268.586304 817.045166,264.350403 
	C819.929871,256.015045 819.929932,256.015076 828.904297,256.015106 
	C829.736816,256.015106 830.596191,256.151031 831.397461,255.992828 
	C836.298279,255.025360 838.347351,257.390259 839.623352,261.920563 
	C841.542969,268.736145 841.838806,268.652832 849.824097,267.519684 
	C844.700989,253.048401 839.513916,238.676239 834.575439,224.219162 
	C833.539429,221.186417 832.089539,220.088150 828.882385,220.120056 
	C825.776733,220.150955 824.109558,221.002594 823.046204,224.086746 
	C818.220764,238.082809 813.161743,251.998337 808.047729,266.756927 
M1242.023193,220.242126 
	C1237.649658,219.395355 1235.175415,221.024506 1234.358643,225.560959 
	C1233.832153,228.485779 1232.694946,231.305115 1231.776611,234.154037 
	C1229.250610,241.990799 1226.695801,249.818283 1223.766235,258.838287 
	C1220.039673,246.925568 1216.712280,236.330902 1213.413086,225.727448 
	C1211.458862,219.445953 1211.256836,219.322693 1204.224731,220.895920 
	C1204.147583,221.210449 1203.927490,221.572311 1204.013794,221.832687 
	C1208.877930,236.511063 1213.655762,251.220932 1218.852783,265.781097 
	C1219.300781,267.036621 1222.544312,267.852020 1224.482056,267.838257 
	C1225.979248,267.827637 1228.358643,266.518799 1228.818481,265.238586 
	C1233.821045,251.308807 1238.544678,237.278320 1243.248047,223.243011 
	C1243.525879,222.413788 1242.980103,221.308533 1242.023193,220.242126 
M898.780396,225.954163 
	C899.520691,221.615524 897.455933,219.808624 893.303284,219.882263 
	C889.830261,219.943848 886.255005,219.497879 882.907288,220.176117 
	C877.441589,221.283432 873.020142,224.099426 871.734802,230.162888 
	C870.462097,236.167282 872.961731,240.583633 877.759644,243.804520 
	C880.646667,245.742584 883.817139,247.261765 886.877991,248.936752 
	C890.256653,250.785706 893.351624,252.966980 892.137085,257.441010 
	C890.909607,261.962830 886.922791,262.372345 883.247498,261.978241 
	C879.413269,261.567047 875.671265,260.296814 871.638733,259.342957 
	C871.755249,262.382172 869.593201,266.371582 874.546448,267.392853 
	C878.720764,268.253510 883.135010,268.933411 887.326355,268.517242 
	C895.242554,267.731232 899.227478,264.220764 900.462097,258.347839 
	C901.674133,252.582077 899.185364,247.509140 892.812683,243.433685 
	C889.599731,241.378952 885.855713,240.064011 882.913574,237.711899 
	C881.266541,236.395233 879.831360,233.545074 880.037292,231.566681 
	C880.212830,229.880005 882.736328,227.344055 884.457764,227.135361 
	C888.259155,226.674576 892.206970,227.513855 896.101074,227.656357 
	C896.979858,227.688507 897.883545,227.040787 898.780396,225.954163 
M1083.696045,249.499481 
	C1083.696045,255.571701 1083.696045,261.643921 1083.696045,267.663757 
	C1092.617798,267.663757 1100.696045,267.663757 1108.746094,267.663757 
	C1108.746094,265.401642 1108.746094,263.487457 1108.746094,260.895905 
	C1102.726929,260.895905 1097.011841,260.895905 1091.486572,260.895905 
	C1091.486572,255.973404 1091.486572,251.743393 1091.486572,246.935730 
	C1096.785400,246.935730 1101.684326,246.935730 1106.505371,246.935730 
	C1106.505371,244.600845 1106.505371,242.860245 1106.505371,240.478302 
	C1101.239502,240.478302 1096.332642,240.478302 1091.390869,240.478302 
	C1091.390869,235.740005 1091.390869,231.651871 1091.390869,226.930756 
	C1097.077271,226.930756 1102.471436,226.930756 1108.111206,226.930756 
	C1107.992310,224.375381 1107.903809,222.476456 1107.819336,220.660706 
	C1099.510986,220.660706 1091.792847,220.660706 1083.695679,220.660706 
	C1083.695679,230.216858 1083.695679,239.358231 1083.696045,249.499481 
M739.357361,261.106262 
	C735.416565,261.106262 731.475830,261.106262 727.370544,261.106262 
	C727.370544,256.210663 727.370544,251.973969 727.370544,247.154968 
	C732.549194,247.154968 737.460083,247.154968 742.608826,247.154968 
	C742.608826,244.832504 742.608826,243.094803 742.608826,240.694885 
	C738.419189,240.694885 734.459595,240.886642 730.538940,240.579910 
	C729.338074,240.485962 727.363342,239.122650 727.258240,238.172867 
	C726.865417,234.625107 727.101196,231.007721 727.101196,226.960892 
	C733.097412,226.960892 738.360840,226.960892 743.777710,226.960892 
	C743.777710,224.583389 743.777710,222.682251 743.777710,220.550415 
	C735.740784,220.550415 728.002319,220.550415 720.003906,220.550415 
	C720.003906,236.412735 720.003906,251.964493 720.003906,267.749908 
	C728.390320,267.749908 736.468750,267.749908 744.810425,267.749908 
	C744.810425,265.578918 744.810425,263.664368 744.810425,261.389984 
	C743.211243,261.289246 741.760437,261.197845 739.357361,261.106262 
M626.917053,247.214157 
	C631.499268,247.214157 636.081543,247.214157 640.940979,247.214157 
	C640.799255,244.515015 640.707520,242.768112 640.611938,240.948364 
	C638.925964,240.844437 637.772583,240.725723 636.617737,240.709488 
	C624.278137,240.535812 624.275024,240.540009 625.266357,228.297180 
	C625.289124,228.015991 625.596863,227.757874 626.078308,227.017365 
	C631.031494,227.017365 636.298096,227.017365 641.808472,227.017365 
	C641.808472,224.636124 641.808472,222.732971 641.808472,220.535065 
	C633.807983,220.535065 626.068298,220.535065 618.012329,220.535065 
	C618.012329,236.369308 618.012329,251.921967 618.012329,267.598511 
	C626.461365,267.598511 634.657227,267.598511 642.681030,267.598511 
	C642.681030,265.278259 642.681030,263.373138 642.681030,260.967133 
	C636.714722,260.967133 631.129944,260.967133 624.685974,260.967133 
	C625.169983,256.065887 625.597656,251.735489 626.917053,247.214157 
M1167.175781,264.339813 
	C1167.175781,262.749695 1167.175781,261.159576 1167.175781,259.126862 
	C1158.685669,262.687042 1150.926147,263.753326 1144.554443,256.625610 
	C1139.861694,251.376099 1139.307495,240.828003 1143.201904,234.458481 
	C1149.034424,224.919250 1157.739990,225.717102 1167.227783,228.796982 
	C1166.586182,225.354462 1169.199951,220.925171 1163.903564,220.420380 
	C1158.855957,219.939301 1153.459961,219.675308 1148.643677,220.940186 
	C1139.557129,223.326645 1134.556030,230.295395 1133.199219,239.330643 
	C1131.701660,249.301910 1132.979492,258.763184 1142.026245,265.274231 
	C1149.011475,270.301422 1161.684082,270.149750 1167.175781,264.339813 
M700.702881,228.560333 
	C700.702881,241.603210 700.702881,254.646088 700.702881,267.693420 
	C703.572693,267.693420 705.649536,267.693420 707.874878,267.693420 
	C707.874878,251.862350 707.874878,236.339005 707.874878,220.704224 
	C705.384033,220.704224 703.209290,220.704224 700.702454,220.704224 
	C700.702454,223.291855 700.702454,225.438141 700.702881,228.560333 
M511.177765,261.413269 
	C511.177765,247.853882 511.177765,234.294495 511.177765,220.560364 
	C508.416168,220.560364 506.347931,220.560364 503.992371,220.560364 
	C503.992371,236.388199 503.992371,251.910782 503.992371,267.646301 
	C506.423309,267.646301 508.622589,267.646301 511.177948,267.646301 
	C511.177948,265.658417 511.177948,264.021881 511.177765,261.413269 
M415.177765,232.513382 
	C415.177765,228.585892 415.177765,224.658401 415.177765,220.555359 
	C412.428375,220.555359 410.360657,220.555359 408.137726,220.555359 
	C408.137726,236.489609 408.137726,252.119492 408.137726,267.656799 
	C410.653290,267.656799 412.729095,267.656799 415.177979,267.656799 
	C415.177979,256.048615 415.177979,244.779251 415.177765,232.513382 
M793.702820,239.500397 
	C793.702820,248.890930 793.702820,258.281464 793.702820,267.705139 
	C796.547729,267.705139 798.624390,267.705139 800.891968,267.705139 
	C800.891968,251.888260 800.891968,236.366745 800.891968,220.682510 
	C798.415161,220.682510 796.234253,220.682510 793.702454,220.682510 
	C793.702454,226.904114 793.702454,232.702377 793.702820,239.500397 
M1178.327026,259.870178 
	C1173.761841,260.812927 1171.787842,263.539398 1173.924683,266.369171 
	C1174.861816,267.609955 1177.008789,268.773041 1178.420410,268.583801 
	C1179.829834,268.394928 1182.145752,266.351044 1182.038452,265.334106 
	C1181.840820,263.461029 1180.159058,261.744476 1178.327026,259.870178 
M991.979309,262.233612 
	C989.854187,261.591614 987.704956,260.448120 985.615417,260.548218 
	C984.748413,260.589752 983.247925,263.386749 983.422607,264.753326 
	C983.601868,266.155426 985.236633,267.892395 986.656860,268.508118 
	C989.755920,269.851593 991.986145,267.453400 991.979309,262.233612 
M907.861877,266.524078 
	C909.801697,269.020691 912.340454,269.914276 914.651855,267.601288 
	C915.758606,266.493774 916.499756,263.516785 915.795715,262.474640 
	C914.860962,261.090851 911.617249,259.638916 910.683411,260.245361 
	C909.089172,261.280701 908.519653,263.893951 907.861877,266.524078 
M1248.861938,266.524170 
	C1250.801880,269.020386 1253.340332,269.914490 1255.651855,267.601196 
	C1256.758545,266.493561 1257.499756,263.516724 1256.795654,262.474579 
	C1255.860962,261.090790 1252.616821,259.638885 1251.683350,260.245300 
	C1250.089233,261.281036 1249.519775,263.894012 1248.861938,266.524170 
z"/>
<path fill="#7F7F7F" opacity="1.000000" stroke="none" 
	d="
M74.439621,223.072083 
	C74.439629,223.072067 74.119194,223.109207 74.119194,223.109207 
	C74.119194,223.109207 73.890862,222.880859 74.246201,222.426498 
	C73.749535,220.579712 73.085274,219.019638 72.015541,217.821609 
	C64.101334,208.958115 58.032272,198.971176 53.532597,188.000015 
	C48.870869,176.633759 46.954285,164.728622 46.224766,152.041687 
	C53.994602,152.041687 61.456089,152.041687 68.917572,152.041687 
	C76.413895,152.041687 83.910225,152.041687 91.406548,152.041687 
	C98.736290,152.041687 106.066025,152.041687 113.395767,152.041687 
	C120.892097,152.041687 128.388672,152.079391 135.884674,152.030914 
	C143.133163,151.984039 150.409363,152.239883 157.677460,151.149643 
	C157.120712,149.751968 156.507614,149.264389 155.911972,148.756348 
	C142.996368,137.740570 136.677094,123.418793 137.272873,106.781136 
	C137.874298,89.986481 145.234985,75.975067 158.974182,65.775703 
	C160.220230,64.850685 162.016724,64.023781 163.479858,64.138962 
	C173.000565,64.888466 182.795837,64.738762 191.953735,67.051422 
	C227.784210,76.099731 252.199081,98.637489 265.771118,132.800293 
	C269.634338,142.524612 272.055267,152.780930 271.921600,163.938309 
	C235.460571,164.006500 199.441208,163.894699 163.408264,164.667816 
	C164.665283,166.735855 166.161758,167.757553 167.193466,169.128922 
	C179.443298,185.412125 182.910736,203.273499 174.900467,222.238983 
	C167.001740,240.940369 152.022400,256.470764 126.204384,249.329575 
	C108.932533,244.552200 93.349915,237.629578 79.972977,225.718323 
	C78.506126,224.412170 76.301865,223.934174 74.439621,223.072083 
z"/>
<path fill="#0D0B0C" opacity="1.000000" stroke="none" 
	d="
M74.666336,223.341156 
	C76.301865,223.934174 78.506126,224.412170 79.972977,225.718323 
	C93.349915,237.629578 108.932533,244.552200 126.204384,249.329575 
	C152.022400,256.470764 167.001740,240.940369 174.900467,222.238983 
	C182.910736,203.273499 179.443298,185.412125 167.193466,169.128922 
	C166.161758,167.757553 164.665283,166.735855 163.408264,164.667816 
	C199.441208,163.894699 235.460571,164.006500 271.921600,163.938309 
	C272.055267,152.780930 269.634338,142.524612 265.771118,132.800293 
	C252.199081,98.637489 227.784210,76.099731 191.953735,67.051422 
	C182.795837,64.738762 173.000565,64.888466 163.479858,64.138962 
	C162.016724,64.023781 160.220230,64.850685 158.974182,65.775703 
	C145.234985,75.975067 137.874298,89.986481 137.272873,106.781136 
	C136.677094,123.418793 142.996368,137.740570 155.911972,148.756348 
	C156.507614,149.264389 157.120712,149.751968 157.677460,151.149643 
	C150.409363,152.239883 143.133163,151.984039 135.884674,152.030914 
	C128.388672,152.079391 120.892097,152.041687 113.395767,152.041687 
	C106.066025,152.041687 98.736290,152.041687 91.406548,152.041687 
	C83.910225,152.041687 76.413895,152.041687 68.917572,152.041687 
	C61.456089,152.041687 53.994602,152.041687 46.224766,152.041687 
	C46.954285,164.728622 48.870869,176.633759 53.532597,188.000015 
	C58.032272,198.971176 64.101334,208.958115 72.015541,217.821609 
	C73.085274,219.019638 73.749535,220.579712 74.265083,222.266602 
	C54.930046,203.115219 45.372631,179.686981 44.494938,152.020752 
	C33.688450,152.020752 22.936865,152.020752 12.185282,152.020752 
	C2.050498,152.020767 2.050498,152.020767 3.923091,142.035904 
	C14.671332,84.725212 63.761238,35.056141 121.099876,23.952248 
	C152.044540,17.959673 183.267975,16.372843 214.257812,22.993996 
	C247.959122,30.194469 277.279480,46.379433 302.720581,69.583183 
	C304.182953,70.916939 305.571381,72.441750 306.576355,74.126831 
	C307.204834,75.180611 307.049622,76.701782 307.246094,78.013214 
	C305.795563,77.957062 304.078857,78.383270 302.943237,77.756523 
	C299.166016,75.671867 295.632690,73.151344 291.942963,70.901077 
	C276.737457,61.627686 261.244720,52.933262 243.439606,49.657780 
	C216.900589,44.775589 191.646774,48.750584 166.201874,61.577934 
	C195.635422,62.444275 220.172974,72.041245 240.598602,91.424911 
	C261.195770,110.971382 271.973328,135.156311 274.243988,163.896484 
	C289.104309,163.896484 303.990234,163.896484 318.793243,163.896484 
	C317.177490,190.657745 307.888123,213.855515 291.475739,234.228790 
	C275.086334,254.573578 253.365204,267.027435 229.346634,276.094635 
	C199.924606,287.201660 169.468124,292.562866 138.071930,291.949951 
	C106.930099,291.341980 78.632416,280.993896 51.930977,265.567291 
	C38.373760,257.734650 26.253574,248.318481 17.452831,235.177094 
	C16.467510,233.705826 16.698204,231.420212 16.364981,229.512238 
	C18.342426,229.824524 20.776667,229.503448 22.225630,230.548492 
	C34.728107,239.565674 48.159615,246.678986 62.864117,251.357956 
	C86.369057,258.837250 110.165619,259.855560 134.244461,254.590775 
	C135.035629,254.417770 135.786179,254.058975 136.686935,253.347534 
	C112.841728,250.008133 92.012390,240.617004 74.666336,223.341156 
M303.851288,74.374695 
	C303.586456,74.371071 303.321625,74.367455 303.056793,74.363838 
	C303.327911,74.621239 303.598999,74.878639 303.936584,75.581497 
	C304.181549,75.546165 304.426483,75.510834 304.671448,75.475510 
	C304.458801,75.304276 304.246155,75.133049 303.851288,74.374695 
M72.282204,256.222931 
	C52.597076,251.850220 35.001328,242.911087 18.370495,231.429153 
	C19.218979,233.790955 20.502861,235.613342 21.840260,237.395584 
	C31.035801,249.649857 43.398296,257.895996 56.467083,265.471924 
	C93.137810,286.729767 132.401535,293.733124 174.174255,287.776550 
	C197.341660,284.472992 219.708817,278.335815 241.123199,268.837646 
	C257.897461,261.397552 272.996185,251.497574 285.379578,237.848541 
	C297.036957,224.999680 305.888580,210.344437 311.017731,193.753403 
	C313.621735,185.330383 314.920441,176.503815 316.903046,167.430405 
	C266.778717,167.430405 218.112198,167.430405 168.813782,167.430405 
	C178.851028,181.154861 183.186539,195.716080 180.041611,212.036301 
	C176.142242,232.271454 164.802567,247.048477 145.397934,253.711761 
	C121.816772,261.809235 97.442711,262.200317 72.282204,256.222931 
M273.538513,57.937916 
	C283.042023,63.299942 292.545563,68.661972 302.049072,74.024002 
	C302.672943,73.300407 303.296814,72.576813 303.920685,71.853218 
	C302.290527,70.969330 300.419312,70.358017 299.065979,69.161110 
	C274.520996,47.453335 246.442383,32.332394 214.468979,25.193432 
	C187.695557,19.215511 160.517517,19.693405 133.583160,24.068806 
	C69.806015,34.429203 28.405752,71.084465 8.540881,132.323242 
	C6.842509,137.558929 6.011768,143.076065 4.752014,148.575775 
	C54.316765,148.575775 102.975571,148.575775 152.114532,148.575775 
	C150.144485,146.202667 148.502808,144.339462 146.985489,142.379959 
	C127.586067,117.327087 133.055649,80.321030 159.319946,63.212067 
	C175.162247,52.892151 192.977600,47.326534 211.900986,45.932270 
	C233.231537,44.360649 253.736725,47.465683 273.538513,57.937916 
z"/>
<path fill="#000000" opacity="1.000000" stroke="none" 
	d="
M963.000000,190.002167 
	C1056.142944,190.002167 1148.785889,190.002167 1241.472534,190.002167 
	C1241.472534,194.437500 1241.472534,198.630142 1241.472534,203.022491 
	C943.819214,203.022491 646.691345,203.022491 349.036438,203.022491 
	C348.822632,198.867249 348.606323,194.663834 348.366455,190.002167 
	C552.927246,190.002167 757.713623,190.002167 963.000000,190.002167 
M353.679779,193.004089 
	C347.742035,193.906662 351.920929,197.983109 350.787964,200.651733 
	C647.347656,200.651733 943.384949,200.651733 1239.665283,200.651733 
	C1239.665283,198.047195 1239.665283,195.790359 1239.665283,193.000870 
	C944.509888,193.000870 649.581543,193.000870 353.679779,193.004089 
z"/>
<path fill="#090809" opacity="1.000000" stroke="none" 
	d="
M714.372864,60.646484 
	C723.928345,68.690659 733.220825,76.494720 742.926880,84.646103 
	C746.656006,80.016289 750.298889,75.541420 753.890015,71.025375 
	C762.176941,60.603764 770.523193,50.227180 778.649597,39.681458 
	C780.603027,37.146545 782.663513,36.304161 785.793823,36.326092 
	C805.391785,36.463394 824.991211,36.395458 844.888794,36.395458 
	C844.888794,84.080246 844.888794,131.792984 844.888794,179.755493 
	C823.676758,179.755493 802.629700,179.755493 781.051147,179.755493 
	C781.051147,143.818314 781.051147,108.133423 781.051147,72.448532 
	C780.702454,72.310104 780.353821,72.171669 780.005127,72.033241 
	C761.221680,95.589523 742.438232,119.145813 723.228455,143.236740 
	C709.933594,132.437347 696.851501,121.810806 683.014526,110.571030 
	C683.014526,113.280586 683.014587,115.194572 683.014587,117.108559 
	C683.014587,136.431534 682.912964,155.755493 683.097595,175.076691 
	C683.135925,179.086761 681.890564,180.301193 677.944885,180.097900 
	C671.823059,179.782455 665.673035,180.014587 659.124023,180.014587 
	C659.124023,132.064056 659.124023,84.359497 659.124023,36.402306 
	C667.332336,36.402306 675.570801,36.274639 683.798645,36.512653 
	C685.397522,36.558907 687.162720,37.778812 688.498352,38.883804 
	C697.090210,45.991871 705.583923,53.218605 714.372864,60.646484 
M783.027466,142.500000 
	C783.027466,153.929626 783.027466,165.359268 783.027466,176.791641 
	C803.054016,176.791641 822.277039,176.791641 841.577026,176.791641 
	C841.577026,130.670761 841.577026,84.953239 841.577026,38.806156 
	C839.539795,38.806156 837.898560,38.806156 836.257324,38.806156 
	C819.927124,38.806160 803.595520,38.922523 787.267883,38.719112 
	C783.488586,38.672035 781.189148,40.028454 778.943848,42.916981 
	C768.328369,56.573490 757.491943,70.058083 746.773621,83.635040 
	C744.729858,86.223824 742.999207,87.962166 739.601929,85.036369 
	C723.973877,71.577202 708.199707,58.287483 692.438171,44.984066 
	C689.912048,42.851894 687.342773,39.547344 684.518799,39.230156 
	C677.212219,38.409496 669.752197,38.954983 662.365784,38.954983 
	C662.365784,85.331680 662.365784,130.905350 662.365784,176.666656 
	C668.275940,176.666656 673.845276,176.666656 680.106689,176.666656 
	C680.106689,153.032410 680.106689,129.693146 680.106689,105.564743 
	C681.614746,106.538414 682.311829,106.900917 682.908630,107.386642 
	C695.161255,117.358688 707.465088,127.269485 719.595947,137.387695 
	C722.219421,139.575897 723.681824,139.217819 725.644043,136.726913 
	C740.257507,118.175728 754.937012,99.676361 769.642456,81.197884 
	C773.509094,76.339157 777.539246,71.610596 781.494324,66.822273 
	C782.005371,67.004807 782.516418,67.187340 783.027466,67.369873 
	C783.027466,92.079918 783.027466,116.789955 783.027466,142.500000 
z"/>
<path fill="#0B0A0D" opacity="1.000000" stroke="none" 
	d="
M444.000000,159.019196 
	C435.501678,159.019196 427.499084,159.169662 419.507111,158.944778 
	C416.330719,158.855392 414.335449,159.605835 412.750946,162.574173 
	C410.252014,167.255569 406.940552,171.507385 404.499908,176.214264 
	C402.831543,179.431824 400.637878,180.252411 397.312500,180.075180 
	C393.008240,179.845749 388.682526,180.019196 383.377350,180.019196 
	C384.394562,177.709778 385.007446,175.960464 385.892273,174.361679 
	C409.859589,131.054581 434.066925,87.877686 457.620300,44.346901 
	C461.221069,37.691982 464.940491,36.024982 472.144409,35.623631 
	C482.359802,35.054508 487.632233,38.322891 492.569427,47.555420 
	C515.129456,89.742508 538.697998,131.390259 561.893799,173.237503 
	C562.921814,175.092041 563.848511,177.002701 565.186523,179.591934 
	C563.048096,179.765518 561.485718,180.000885 559.923096,180.002777 
	C539.427368,180.027466 518.930603,179.915527 498.436859,180.116776 
	C494.836060,180.152130 493.077515,178.864929 491.609009,175.809738 
	C489.381653,171.175797 486.532074,166.840897 484.305786,162.206528 
	C483.122131,159.742630 481.719116,158.910446 478.991913,158.949539 
	C467.496643,159.114258 455.997650,159.019196 444.000000,159.019196 
M417.234802,156.260300 
	C437.899872,156.232635 458.566193,156.097122 479.228058,156.340881 
	C481.339264,156.365799 484.105560,158.186356 485.382996,160.005646 
	C488.331390,164.204803 490.786438,168.804352 492.984497,173.457428 
	C494.456390,176.573135 496.532074,177.254639 499.698547,177.235229 
	C518.697083,177.118774 537.696777,177.183914 556.696045,177.162369 
	C557.927002,177.160980 559.157776,176.944366 560.978149,176.772079 
	C559.346741,173.610519 558.055664,170.942139 556.620972,168.353302 
	C534.838501,129.046921 512.980530,89.782234 491.276062,50.432873 
	C485.048615,39.142780 485.246185,39.033802 472.642975,39.033817 
	C470.809723,39.033821 468.848267,38.621925 467.176727,39.141895 
	C465.236084,39.745594 462.779083,40.724487 461.873230,42.302353 
	C453.503998,56.880455 445.419037,71.621811 437.256561,86.318558 
	C424.326447,109.599495 411.387604,132.875580 398.480530,156.169266 
	C394.819031,162.777267 391.255127,169.439346 387.558441,176.238510 
	C398.443390,178.959991 400.807800,178.013474 405.796143,169.605728 
	C407.748688,166.314774 409.638123,162.960480 411.906586,159.894150 
	C412.987244,158.433365 414.887543,157.578964 417.234802,156.260300 
z"/>
<path fill="#858487" opacity="1.000000" stroke="none" 
	d="
M433.780975,253.991852 
	C433.780823,258.786438 433.780823,263.083221 433.780823,267.690735 
	C431.254211,267.690735 429.175446,267.690735 426.743103,267.690735 
	C426.743103,252.129333 426.743103,236.586975 426.743103,221.091217 
	C435.730957,218.635422 436.913330,219.249146 440.017151,227.570953 
	C443.387421,236.607254 446.812317,245.623230 450.231537,254.641174 
	C450.337921,254.921692 450.645386,255.125931 451.323456,255.886780 
	C454.266418,248.307434 457.101318,241.021103 459.924194,233.730133 
	C461.245117,230.318497 462.247559,226.737106 463.981262,223.552139 
	C464.795837,222.055725 466.930206,220.509827 468.582886,220.370911 
	C475.611481,219.780106 475.629089,219.969330 475.629974,227.129303 
	C475.631409,238.946136 475.630432,250.762970 475.630432,262.579803 
	C475.630432,264.212219 475.630402,265.844604 475.630402,267.737610 
	C472.889282,267.737610 470.663269,267.737610 467.971985,267.737610 
	C467.971985,255.982605 467.971985,244.477753 467.971985,232.972885 
	C467.640808,232.906372 467.309662,232.839844 466.978485,232.773315 
	C462.979919,243.256348 459.024200,253.756149 454.931519,264.202301 
	C454.385284,265.596466 453.382874,267.401031 452.175751,267.821594 
	C449.829041,268.639191 447.943695,267.865631 446.895233,264.963684 
	C443.449493,255.426590 439.680206,246.006256 436.022430,236.546021 
	C435.636444,235.547668 435.165710,234.582062 433.781128,233.800415 
	C433.781128,240.364960 433.781128,246.929504 433.780975,253.991852 
z"/>
<path fill="#000000" opacity="1.000000" stroke="none" 
	d="
M635.997620,149.000000 
	C635.997620,159.477005 635.997620,169.454010 635.997620,179.766724 
	C634.545837,179.850998 633.281616,179.987381 632.017212,179.988312 
	C613.355469,180.001953 594.692627,179.892654 576.032776,180.081680 
	C572.064087,180.121872 570.909851,178.956528 570.921265,174.977844 
	C571.049683,130.323242 571.048889,85.668022 570.922119,41.013416 
	C570.910828,37.044567 572.051331,35.878754 576.028137,35.916531 
	C595.830383,36.104626 615.635376,36.002449 635.997620,36.002449 
	C635.997620,73.656265 635.997620,111.078133 635.997620,149.000000 
M633.000000,62.500031 
	C633.000000,54.756599 633.000000,47.013168 633.000000,39.361794 
	C613.232788,39.361794 594.337402,39.361794 575.434692,39.361794 
	C575.434692,85.383659 575.434692,131.042358 575.434692,176.638397 
	C594.766846,176.638397 613.662170,176.638397 633.000000,176.638397 
	C633.000000,138.685715 633.000000,101.092857 633.000000,62.500031 
z"/>
<path fill="#100B0A" opacity="1.000000" stroke="none" 
	d="
M1038.111694,170.148575 
	C1034.943970,178.802460 1028.948242,181.545792 1020.485718,180.078140 
	C1018.305725,179.700058 1016.004456,180.021317 1012.976990,180.021317 
	C1013.960327,177.762253 1014.424561,176.400162 1015.111084,175.161331 
	C1039.672852,130.842850 1064.397827,86.613625 1088.642334,42.122429 
	C1091.454468,36.961876 1094.380249,35.475937 1099.678223,35.897976 
	C1104.977417,36.320118 1111.280884,34.371613 1115.378174,36.645134 
	C1119.161011,38.744167 1120.601929,45.063736 1123.074463,49.524261 
	C1146.355957,91.523277 1169.639526,133.521133 1192.907349,175.527664 
	C1193.520996,176.635330 1193.964600,177.837204 1194.830811,179.755981 
	C1192.662476,179.864609 1191.098267,180.009995 1189.534058,180.011169 
	C1169.201416,180.026474 1148.867920,179.929886 1128.536865,180.108673 
	C1125.027344,180.139526 1123.141846,179.023880 1121.585815,175.936829 
	C1118.748413,170.307846 1116.719482,162.711578 1112.014648,160.012283 
	C1107.086792,157.184952 1099.409546,159.065689 1092.933228,159.038849 
	C1079.100586,158.981552 1065.261963,159.247452 1051.437988,158.896454 
	C1046.714355,158.776505 1043.528320,159.772537 1041.670532,164.316162 
	C1040.865356,166.285751 1039.433472,167.999161 1038.111694,170.148575 
M1124.417847,176.383255 
	C1126.249268,176.841934 1128.078613,177.689713 1129.912476,177.699249 
	C1148.736328,177.797211 1167.561035,177.764053 1186.385498,177.749771 
	C1187.798218,177.748703 1189.210815,177.611923 1191.380005,177.498764 
	C1189.877319,174.722260 1188.731445,172.560333 1187.545532,170.420517 
	C1166.170166,131.848969 1144.803955,93.272377 1123.394775,54.719677 
	C1120.498047,49.503456 1118.533447,42.415897 1114.041870,39.818394 
	C1109.521118,37.204105 1102.375000,38.887959 1096.403076,39.177868 
	C1094.693970,39.260838 1092.331543,40.633625 1091.509766,42.107113 
	C1067.194702,85.706787 1043.034180,129.392624 1018.864197,173.073196 
	C1018.124146,174.410629 1017.547058,175.838318 1017.014160,176.968994 
	C1027.096924,180.142456 1033.482544,176.770004 1037.226929,167.632675 
	C1038.473022,164.591934 1040.364624,161.703003 1042.473022,159.170944 
	C1043.721680,157.671280 1045.962158,156.117950 1047.771973,156.099457 
	C1068.593384,155.886810 1089.418213,155.909927 1110.240234,156.078964 
	C1111.712402,156.090912 1113.747192,157.395737 1114.536133,158.696365 
	C1117.899414,164.241699 1120.892334,170.011597 1124.417847,176.383255 
z"/>
<path fill="#160F0F" opacity="1.000000" stroke="none" 
	d="
M886.938843,50.943520 
	C894.040466,42.018925 904.343750,39.106251 914.682922,36.603603 
	C943.483704,29.632280 970.059753,34.887218 994.346375,51.817017 
	C994.998718,52.271751 995.518250,52.916962 996.344238,53.707367 
	C990.301880,60.295483 984.386780,66.744820 979.283630,72.308907 
	C971.426392,69.605820 964.436768,66.566017 957.133057,64.922096 
	C952.610779,63.904243 947.538574,64.580055 942.862122,65.373199 
	C941.043152,65.681702 938.457764,68.345779 938.375977,70.040848 
	C938.298096,71.653511 940.761719,74.458458 942.570740,74.918304 
	C953.993896,77.822021 965.548340,80.207993 977.054810,82.785667 
	C997.388672,87.340874 1011.508728,101.367500 1013.565063,121.858688 
	C1015.114685,137.300186 1008.626526,150.712067 997.438416,161.601379 
	C986.188232,172.551117 971.734375,176.595108 957.036133,179.587433 
	C929.398682,185.213928 903.236511,180.645065 877.887512,166.704208 
	C877.492737,155.184799 877.091553,143.478043 876.852417,131.406067 
	C877.014526,131.040848 876.953613,130.984619 876.675110,131.388062 
	C876.691101,140.072922 876.668030,148.383087 877.414429,156.623566 
	C877.786255,160.729034 877.960999,164.807037 883.324829,167.364456 
	C904.321716,177.375549 926.108276,182.038773 949.207336,178.742477 
	C964.088745,176.618866 978.800659,173.161011 991.111694,163.915344 
	C1004.874512,153.579391 1012.735168,139.481384 1011.295715,122.158829 
	C1009.737488,103.407112 996.316650,89.537804 977.727295,85.152168 
	C965.753113,82.327217 953.702698,79.826065 941.686829,77.177734 
	C937.968140,76.358116 935.859375,74.133659 935.830688,70.238762 
	C935.801819,66.317711 937.966797,63.713509 941.624329,63.217903 
	C946.524841,62.553890 951.700867,61.715263 956.444580,62.612251 
	C963.819214,64.006699 970.929321,66.799896 978.934387,69.238693 
	C983.080261,64.769180 988.014221,59.450020 992.894409,54.188770 
	C992.479736,53.587715 992.344360,53.275787 992.111816,53.077957 
	C991.605469,52.647175 991.065491,52.250786 990.511780,51.881668 
	C974.418030,41.153355 956.700562,35.420685 937.358826,35.867496 
	C920.010803,36.268257 903.232422,39.222488 889.336121,50.989632 
	C888.889587,51.367825 887.970947,51.188488 887.189209,51.187500 
	C887.105957,51.105938 886.938843,50.943520 886.938843,50.943520 
z"/>
<path fill="#848286" opacity="1.000000" stroke="none" 
	d="
M682.921875,245.916916 
	C682.921875,237.291794 682.921875,229.152145 682.921875,220.628296 
	C685.314453,220.628296 687.361084,220.628296 689.746826,220.628296 
	C689.746826,236.277878 689.746826,251.825851 689.746826,267.518433 
	C684.627197,269.014984 681.223572,267.852905 678.396851,262.848755 
	C672.610840,252.605911 666.116638,242.763153 659.081055,231.411652 
	C659.081055,244.414963 659.081055,255.903183 659.081055,267.692993 
	C656.489868,267.692993 654.427429,267.692993 652.027588,267.692993 
	C652.027588,252.029648 652.027588,236.483139 652.027588,220.788147 
	C657.092224,219.435089 660.730835,220.040833 663.628174,225.227341 
	C669.350464,235.470352 675.794678,245.310043 682.921936,255.087662 
	C682.921936,252.192566 682.921936,249.297485 682.921875,245.916916 
z"/>
<path fill="#848286" opacity="1.000000" stroke="none" 
	d="
M552.337830,267.175659 
	C545.011047,255.479736 537.936035,244.093460 530.081116,231.451920 
	C530.081116,244.374374 530.081116,255.772354 530.081116,267.587036 
	C527.701843,267.587036 525.650452,267.587036 523.131897,267.587036 
	C523.131897,252.225571 523.131897,236.680786 523.131897,221.103500 
	C529.603882,219.072922 530.921021,219.510452 534.366211,225.098068 
	C540.560669,235.144623 546.723267,245.210861 553.830078,255.146240 
	C553.830078,243.688110 553.830078,232.229980 553.830078,220.517181 
	C556.439148,220.517181 558.364136,220.517181 560.685852,220.517181 
	C560.685852,236.167557 560.685852,251.720505 560.685852,268.027374 
	C558.007385,267.848053 555.298523,267.666687 552.337830,267.175659 
z"/>
<path fill="#838386" opacity="1.000000" stroke="none" 
	d="
M1038.351440,267.548706 
	C1037.972412,251.822296 1037.972412,236.395645 1037.972412,220.458435 
	C1046.694458,220.178741 1055.306519,219.329468 1063.583008,222.467590 
	C1072.445435,225.827850 1076.547729,233.874405 1075.867188,245.787506 
	C1075.283691,256.001404 1068.746094,264.896576 1059.025757,266.768066 
	C1052.435547,268.036865 1045.507446,267.550079 1038.351440,267.548706 
M1067.521362,239.328094 
	C1064.744385,229.164017 1057.134644,225.161606 1045.480957,227.762283 
	C1045.480957,238.780243 1045.480957,249.802170 1045.480957,260.776367 
	C1057.257202,261.886169 1063.462524,259.599487 1066.090454,252.318420 
	C1067.448730,248.555176 1067.223267,244.220337 1067.521362,239.328094 
z"/>
<path fill="#848486" opacity="1.000000" stroke="none" 
	d="
M594.703003,268.856934 
	C580.963806,268.884003 572.515076,262.623444 570.196594,251.048996 
	C567.595459,238.063431 573.039246,225.685593 584.100464,221.583527 
	C588.581482,219.921738 593.865967,219.892944 598.763611,220.010010 
	C606.577271,220.196777 607.055237,221.076553 606.597534,228.335022 
	C601.146729,227.874496 595.579346,226.482101 590.277588,227.161728 
	C581.217285,228.323166 576.320129,237.840912 578.042114,249.007385 
	C579.378601,257.673981 586.138550,262.846436 594.670044,261.871185 
	C598.897400,261.387970 601.562134,259.847412 600.738525,254.935516 
	C600.445618,253.188843 600.691650,251.351822 600.691650,249.127319 
	C597.334045,248.979797 594.430664,248.852219 591.235840,248.711853 
	C591.235840,246.500778 591.235840,244.587769 591.235840,242.325806 
	C596.634521,242.325806 602.029175,242.325806 608.051392,242.325806 
	C608.051392,249.332245 608.168335,256.262390 607.925903,263.179962 
	C607.889343,264.223450 606.355774,265.719116 605.204956,266.122864 
	C601.935852,267.269714 598.506409,267.959656 594.703003,268.856934 
z"/>
<path fill="#838385" opacity="1.000000" stroke="none" 
	d="
M774.475159,221.105484 
	C780.096497,223.093704 783.083069,226.779556 783.399780,232.356339 
	C783.786804,239.172195 780.392334,243.696411 774.805969,246.027573 
	C779.458923,253.194687 784.028564,260.233490 788.735046,267.483002 
	C782.418884,269.123444 778.429688,267.808289 776.238892,261.960999 
	C775.087646,258.888489 773.011353,256.154877 771.291992,253.304871 
	C769.067017,249.616730 765.959290,247.981979 761.235596,249.425232 
	C761.235596,255.295029 761.235596,261.240417 761.235596,267.594177 
	C758.648926,267.594177 756.459656,267.594177 753.997925,267.594177 
	C753.997925,251.930023 753.997925,236.380814 753.997925,219.956787 
	C760.913086,220.321121 767.497620,220.668045 774.475159,221.105484 
M773.323792,239.770386 
	C775.675537,236.496780 776.378723,232.833893 773.846558,229.632843 
	C770.561829,225.480286 765.851013,226.945374 761.417297,227.235367 
	C761.417297,232.314194 761.417297,237.028381 761.417297,242.845230 
	C765.559021,241.928268 769.146362,241.134048 773.323792,239.770386 
z"/>
<path fill="#868486" opacity="1.000000" stroke="none" 
	d="
M385.272186,223.650040 
	C390.520813,238.431534 395.631683,252.839996 400.753754,267.280090 
	C393.054626,268.997711 392.610382,269.035126 390.718201,262.131744 
	C389.403564,257.335632 387.243011,254.928207 382.125549,255.996872 
	C381.487274,256.130157 380.797058,256.015106 380.130920,256.015106 
	C371.049316,256.015106 370.867310,255.955734 368.037079,264.637848 
	C366.254517,270.106171 362.404755,267.417175 358.575623,267.840790 
	C361.620026,259.191193 364.466614,251.056763 367.347137,242.934357 
	C369.627136,236.505264 371.796783,230.029099 374.365814,223.716415 
	C374.959534,222.257462 376.874176,220.619247 378.372070,220.406082 
	C380.879333,220.049271 384.329651,219.011337 385.272186,223.650040 
M381.730499,234.858185 
	C381.096222,233.169159 380.461945,231.480133 379.495117,228.905624 
	C377.148376,236.047501 375.082092,242.335785 372.947021,248.833389 
	C377.712677,248.833389 381.734100,248.833389 386.271240,248.833389 
	C384.713898,244.067215 383.329376,239.829987 381.730499,234.858185 
z"/>
<path fill="#868486" opacity="1.000000" stroke="none" 
	d="
M953.115967,224.096039 
	C953.908325,219.718201 956.973328,220.399536 959.786743,220.169006 
	C962.908936,219.913223 963.672852,221.783813 964.500000,224.150787 
	C969.541870,238.579208 974.677124,252.974991 979.800781,267.436798 
	C971.882812,268.771393 971.496033,268.873566 969.676819,261.985718 
	C968.362183,257.008240 965.928162,255.034943 960.972534,256.002502 
	C960.491211,256.096497 959.975708,256.015076 959.476074,256.015076 
	C950.120972,256.015015 949.914856,255.947174 947.004395,264.790771 
	C945.264160,270.078186 941.460144,267.330505 937.415466,268.168823 
	C942.786865,253.109192 947.893860,238.790787 953.115967,224.096039 
M962.139954,239.306580 
	C961.043579,236.104538 959.947144,232.902496 958.517822,228.728043 
	C956.126465,236.072449 954.087830,242.333496 951.939209,248.932419 
	C956.577942,248.932419 960.642090,248.932419 965.317078,248.932419 
	C964.245605,245.662643 963.326355,242.857178 962.139954,239.306580 
z"/>
<path fill="#868486" opacity="1.000000" stroke="none" 
	d="
M808.117249,266.349884 
	C813.161743,251.998337 818.220764,238.082809 823.046204,224.086746 
	C824.109558,221.002594 825.776733,220.150955 828.882385,220.120056 
	C832.089539,220.088150 833.539429,221.186417 834.575439,224.219162 
	C839.513916,238.676239 844.700989,253.048401 849.824097,267.519684 
	C841.838806,268.652832 841.542969,268.736145 839.623352,261.920563 
	C838.347351,257.390259 836.298279,255.025360 831.397461,255.992828 
	C830.596191,256.151031 829.736816,256.015106 828.904297,256.015106 
	C819.929932,256.015076 819.929871,256.015045 817.045166,264.350403 
	C815.579163,268.586304 812.805664,269.328125 808.117249,266.349884 
M832.170593,249.247543 
	C834.191467,249.324661 835.413025,248.855179 834.552979,246.397385 
	C832.607971,240.838989 830.771240,235.242737 828.552612,228.659546 
	C826.146179,236.021088 824.100403,242.279282 821.821045,249.251953 
	C825.382751,249.251953 828.323792,249.251953 832.170593,249.247543 
z"/>
<path fill="#878587" opacity="1.000000" stroke="none" 
	d="
M1242.420410,220.286926 
	C1242.980103,221.308533 1243.525879,222.413788 1243.248047,223.243011 
	C1238.544678,237.278320 1233.821045,251.308807 1228.818481,265.238586 
	C1228.358643,266.518799 1225.979248,267.827637 1224.482056,267.838257 
	C1222.544312,267.852020 1219.300781,267.036621 1218.852783,265.781097 
	C1213.655762,251.220932 1208.877930,236.511063 1204.013794,221.832687 
	C1203.927490,221.572311 1204.147583,221.210449 1204.229614,220.897125 
	C1211.256836,219.322693 1211.458862,219.445953 1213.413086,225.727448 
	C1216.712280,236.330902 1220.039673,246.925568 1223.766235,258.838287 
	C1226.695801,249.818283 1229.250610,241.990799 1231.776611,234.154037 
	C1232.694946,231.305115 1233.832153,228.485779 1234.358643,225.560959 
	C1235.175415,221.024506 1237.649658,219.395355 1242.420410,220.286926 
z"/>
<path fill="#858586" opacity="1.000000" stroke="none" 
	d="
M898.778076,226.330093 
	C897.883545,227.040787 896.979858,227.688507 896.101074,227.656357 
	C892.206970,227.513855 888.259155,226.674576 884.457764,227.135361 
	C882.736328,227.344055 880.212830,229.880005 880.037292,231.566681 
	C879.831360,233.545074 881.266541,236.395233 882.913574,237.711899 
	C885.855713,240.064011 889.599731,241.378952 892.812683,243.433685 
	C899.185364,247.509140 901.674133,252.582077 900.462097,258.347839 
	C899.227478,264.220764 895.242554,267.731232 887.326355,268.517242 
	C883.135010,268.933411 878.720764,268.253510 874.546448,267.392853 
	C869.593201,266.371582 871.755249,262.382172 871.638733,259.342957 
	C875.671265,260.296814 879.413269,261.567047 883.247498,261.978241 
	C886.922791,262.372345 890.909607,261.962830 892.137085,257.441010 
	C893.351624,252.966980 890.256653,250.785706 886.877991,248.936752 
	C883.817139,247.261765 880.646667,245.742584 877.759644,243.804520 
	C872.961731,240.583633 870.462097,236.167282 871.734802,230.162888 
	C873.020142,224.099426 877.441589,221.283432 882.907288,220.176117 
	C886.255005,219.497879 889.830261,219.943848 893.303284,219.882263 
	C897.455933,219.808624 899.520691,221.615524 898.778076,226.330093 
z"/>
<path fill="#838385" opacity="1.000000" stroke="none" 
	d="
M1083.695801,248.999542 
	C1083.695679,239.358231 1083.695679,230.216858 1083.695679,220.660706 
	C1091.792847,220.660706 1099.510986,220.660706 1107.819336,220.660706 
	C1107.903809,222.476456 1107.992310,224.375381 1108.111206,226.930756 
	C1102.471436,226.930756 1097.077271,226.930756 1091.390869,226.930756 
	C1091.390869,231.651871 1091.390869,235.740005 1091.390869,240.478302 
	C1096.332642,240.478302 1101.239502,240.478302 1106.505371,240.478302 
	C1106.505371,242.860245 1106.505371,244.600845 1106.505371,246.935730 
	C1101.684326,246.935730 1096.785400,246.935730 1091.486572,246.935730 
	C1091.486572,251.743393 1091.486572,255.973404 1091.486572,260.895905 
	C1097.011841,260.895905 1102.726929,260.895905 1108.746094,260.895905 
	C1108.746094,263.487457 1108.746094,265.401642 1108.746094,267.663757 
	C1100.696045,267.663757 1092.617798,267.663757 1083.696045,267.663757 
	C1083.696045,261.643921 1083.696045,255.571701 1083.695801,248.999542 
z"/>
<path fill="#838385" opacity="1.000000" stroke="none" 
	d="
M739.833496,261.106354 
	C741.760437,261.197845 743.211243,261.289246 744.810425,261.389984 
	C744.810425,263.664368 744.810425,265.578918 744.810425,267.749908 
	C736.468750,267.749908 728.390320,267.749908 720.003906,267.749908 
	C720.003906,251.964493 720.003906,236.412735 720.003906,220.550415 
	C728.002319,220.550415 735.740784,220.550415 743.777710,220.550415 
	C743.777710,222.682251 743.777710,224.583389 743.777710,226.960892 
	C738.360840,226.960892 733.097412,226.960892 727.101196,226.960892 
	C727.101196,231.007721 726.865417,234.625107 727.258240,238.172867 
	C727.363342,239.122650 729.338074,240.485962 730.538940,240.579910 
	C734.459595,240.886642 738.419189,240.694885 742.608826,240.694885 
	C742.608826,243.094803 742.608826,244.832504 742.608826,247.154968 
	C737.460083,247.154968 732.549194,247.154968 727.370544,247.154968 
	C727.370544,251.973969 727.370544,256.210663 727.370544,261.106262 
	C731.475830,261.106262 735.416565,261.106262 739.833496,261.106354 
z"/>
<path fill="#838385" opacity="1.000000" stroke="none" 
	d="
M626.471191,247.309616 
	C625.597656,251.735489 625.169983,256.065887 624.685974,260.967133 
	C631.129944,260.967133 636.714722,260.967133 642.681030,260.967133 
	C642.681030,263.373138 642.681030,265.278259 642.681030,267.598511 
	C634.657227,267.598511 626.461365,267.598511 618.012329,267.598511 
	C618.012329,251.921967 618.012329,236.369308 618.012329,220.535065 
	C626.068298,220.535065 633.807983,220.535065 641.808472,220.535065 
	C641.808472,222.732971 641.808472,224.636124 641.808472,227.017365 
	C636.298096,227.017365 631.031494,227.017365 626.078308,227.017365 
	C625.596863,227.757874 625.289124,228.015991 625.266357,228.297180 
	C624.275024,240.540009 624.278137,240.535812 636.617737,240.709488 
	C637.772583,240.725723 638.925964,240.844437 640.611938,240.948364 
	C640.707520,242.768112 640.799255,244.515015 640.940979,247.214157 
	C636.081543,247.214157 631.499268,247.214157 626.471191,247.309616 
z"/>
<path fill="#858485" opacity="1.000000" stroke="none" 
	d="
M1167.144531,264.749573 
	C1161.684082,270.149750 1149.011475,270.301422 1142.026245,265.274231 
	C1132.979492,258.763184 1131.701660,249.301910 1133.199219,239.330643 
	C1134.556030,230.295395 1139.557129,223.326645 1148.643677,220.940186 
	C1153.459961,219.675308 1158.855957,219.939301 1163.903564,220.420380 
	C1169.199951,220.925171 1166.586182,225.354462 1167.227783,228.796982 
	C1157.739990,225.717102 1149.034424,224.919250 1143.201904,234.458481 
	C1139.307495,240.828003 1139.861694,251.376099 1144.554443,256.625610 
	C1150.926147,263.753326 1158.685669,262.687042 1167.175781,259.126862 
	C1167.175781,261.159576 1167.175781,262.749695 1167.144531,264.749573 
z"/>
<path fill="#160F0F" opacity="1.000000" stroke="none" 
	d="
M890.919006,128.138977 
	C892.569946,128.712845 894.373901,129.028061 895.848511,129.900101 
	C913.198181,140.159927 931.840698,146.729156 951.763245,149.682327 
	C958.319153,150.654144 964.125916,147.526657 966.433960,141.897629 
	C968.769165,136.202362 966.818176,130.356308 961.271118,126.186668 
	C952.101501,119.293900 941.064575,117.083107 930.369568,114.337784 
	C921.562195,112.076988 912.475098,110.748070 903.438354,109.570457 
	C881.263000,106.680695 864.261719,79.528481 882.444397,55.755249 
	C883.653931,54.173786 885.021423,52.713070 886.627197,51.069862 
	C886.938843,50.943520 887.105957,51.105938 887.435913,51.444057 
	C886.494995,53.700886 885.327087,55.697807 883.937683,57.526432 
	C866.692932,80.223198 884.352600,105.434113 904.494690,107.498131 
	C911.746338,108.241234 919.059143,109.214790 926.096802,111.037933 
	C938.893677,114.353065 952.190430,116.539322 963.175903,124.832916 
	C969.030090,129.252609 971.157715,136.505493 968.385681,142.967712 
	C965.714417,149.194901 959.055969,152.912460 952.117676,151.909409 
	C931.831604,148.976715 912.747803,142.557693 895.165039,131.935898 
	C893.564941,130.969299 892.367371,129.336395 890.965820,128.043884 
	C890.948730,128.074860 890.919006,128.138992 890.919006,128.138977 
z"/>
<path fill="#818183" opacity="1.000000" stroke="none" 
	d="
M700.702637,228.072388 
	C700.702454,225.438141 700.702454,223.291855 700.702454,220.704224 
	C703.209290,220.704224 705.384033,220.704224 707.874878,220.704224 
	C707.874878,236.339005 707.874878,251.862350 707.874878,267.693420 
	C705.649536,267.693420 703.572693,267.693420 700.702881,267.693420 
	C700.702881,254.646088 700.702881,241.603210 700.702637,228.072388 
z"/>
<path fill="#818183" opacity="1.000000" stroke="none" 
	d="
M511.177856,261.899292 
	C511.177948,264.021881 511.177948,265.658417 511.177948,267.646301 
	C508.622589,267.646301 506.423309,267.646301 503.992371,267.646301 
	C503.992371,251.910782 503.992371,236.388199 503.992371,220.560364 
	C506.347931,220.560364 508.416168,220.560364 511.177765,220.560364 
	C511.177765,234.294495 511.177765,247.853882 511.177856,261.899292 
z"/>
<path fill="#818183" opacity="1.000000" stroke="none" 
	d="
M415.177856,233.011627 
	C415.177979,244.779251 415.177979,256.048615 415.177979,267.656799 
	C412.729095,267.656799 410.653290,267.656799 408.137726,267.656799 
	C408.137726,252.119492 408.137726,236.489609 408.137726,220.555359 
	C410.360657,220.555359 412.428375,220.555359 415.177765,220.555359 
	C415.177765,224.658401 415.177765,228.585892 415.177856,233.011627 
z"/>
<path fill="#818183" opacity="1.000000" stroke="none" 
	d="
M793.702637,239.000519 
	C793.702454,232.702377 793.702454,226.904114 793.702454,220.682510 
	C796.234253,220.682510 798.415161,220.682510 800.891968,220.682510 
	C800.891968,236.366745 800.891968,251.888260 800.891968,267.705139 
	C798.624390,267.705139 796.547729,267.705139 793.702820,267.705139 
	C793.702820,258.281464 793.702820,248.890930 793.702637,239.000519 
z"/>
<path fill="#898687" opacity="1.000000" stroke="none" 
	d="
M1178.711426,259.916443 
	C1180.159058,261.744476 1181.840820,263.461029 1182.038452,265.334106 
	C1182.145752,266.351044 1179.829834,268.394928 1178.420410,268.583801 
	C1177.008789,268.773041 1174.861816,267.609955 1173.924683,266.369171 
	C1171.787842,263.539398 1173.761841,260.812927 1178.711426,259.916443 
z"/>
<path fill="#898687" opacity="1.000000" stroke="none" 
	d="
M992.117798,262.570190 
	C991.986145,267.453400 989.755920,269.851593 986.656860,268.508118 
	C985.236633,267.892395 983.601868,266.155426 983.422607,264.753326 
	C983.247925,263.386749 984.748413,260.589752 985.615417,260.548218 
	C987.704956,260.448120 989.854187,261.591614 992.117798,262.570190 
z"/>
<path fill="#898687" opacity="1.000000" stroke="none" 
	d="
M907.690796,266.184235 
	C908.519653,263.893951 909.089172,261.280701 910.683411,260.245361 
	C911.617249,259.638916 914.860962,261.090851 915.795715,262.474640 
	C916.499756,263.516785 915.758606,266.493774 914.651855,267.601288 
	C912.340454,269.914276 909.801697,269.020691 907.690796,266.184235 
z"/>
<path fill="#898687" opacity="1.000000" stroke="none" 
	d="
M1248.690918,266.184326 
	C1249.519775,263.894012 1250.089233,261.281036 1251.683350,260.245300 
	C1252.616821,259.638885 1255.860962,261.090790 1256.795654,262.474579 
	C1257.499756,263.516724 1256.758545,266.493561 1255.651855,267.601196 
	C1253.340332,269.914490 1250.801880,269.020386 1248.690918,266.184326 
z"/>
<path fill="#160F0F" opacity="1.000000" stroke="none" 
	d="
M879.137207,126.056519 
	C880.859314,125.631546 882.581482,125.206581 884.635620,124.889389 
	C884.967651,124.997162 885.029297,124.938377 884.723999,124.625397 
	C882.612122,124.873947 880.805603,125.435463 879.031677,126.016273 
	C879.064331,126.035568 879.137207,126.056519 879.137207,126.056519 
z"/>
<path fill="#160F0F" opacity="1.000000" stroke="none" 
	d="
M877.035950,131.076324 
	C877.221802,130.248444 877.386292,129.385071 877.783081,128.279358 
	C878.015381,128.037033 877.959656,127.983215 877.745850,128.230408 
	C877.339233,129.313263 877.146423,130.148941 876.953613,130.984619 
	C876.953613,130.984619 877.014526,131.040848 877.035950,131.076324 
z"/>
<path fill="#160F0F" opacity="1.000000" stroke="none" 
	d="
M888.955200,127.085243 
	C889.517700,127.262962 890.080261,127.440681 890.780884,127.878693 
	C890.919006,128.138992 890.948730,128.074860 890.786987,127.815620 
	C890.089783,127.359543 889.554443,127.162704 889.001587,126.994896 
	C888.984070,127.023933 888.955200,127.085243 888.955200,127.085243 
z"/>
<path fill="#160F0F" opacity="1.000000" stroke="none" 
	d="
M886.955933,126.080948 
	C887.517517,126.248444 888.079163,126.415932 888.797974,126.834335 
	C888.955200,127.085243 888.984070,127.023933 888.815430,126.770737 
	C888.102783,126.335411 887.558838,126.153267 886.998779,125.997856 
	C886.982666,126.024590 886.955933,126.080948 886.955933,126.080948 
z"/>
<path fill="#160F0F" opacity="1.000000" stroke="none" 
	d="
M878.035278,128.070236 
	C878.280640,127.562653 878.506042,127.021866 878.934326,126.268799 
	C879.137207,126.056519 879.064331,126.035568 878.771912,126.168739 
	C878.306213,126.862350 878.132935,127.422791 877.959717,127.983223 
	C877.959656,127.983215 878.015381,128.037033 878.035278,128.070236 
z"/>
<path fill="#160F0F" opacity="1.000000" stroke="none" 
	d="
M884.929260,125.015640 
	C885.470459,125.211746 886.050049,125.389366 886.792786,125.823967 
	C886.955933,126.080948 886.982666,126.024590 886.812378,125.775429 
	C886.104492,125.330299 885.566895,125.134331 885.029297,124.938370 
	C885.029297,124.938377 884.967651,124.997162 884.929260,125.015640 
z"/>
<path fill="#3C246C" opacity="1.000000" stroke="none" 
	d="
M72.681244,256.351562 
	C97.442711,262.200317 121.816772,261.809235 145.397934,253.711761 
	C164.802567,247.048477 176.142242,232.271454 180.041611,212.036301 
	C183.186539,195.716080 178.851028,181.154861 168.813782,167.430405 
	C218.112198,167.430405 266.778717,167.430405 316.903046,167.430405 
	C314.920441,176.503815 313.621735,185.330383 311.017731,193.753403 
	C305.888580,210.344437 297.036957,224.999680 285.379578,237.848541 
	C272.996185,251.497574 257.897461,261.397552 241.123199,268.837646 
	C219.708817,278.335815 197.341660,284.472992 174.174255,287.776550 
	C132.401535,293.733124 93.137810,286.729767 56.467083,265.471924 
	C43.398296,257.895996 31.035801,249.649857 21.840260,237.395584 
	C20.502861,235.613342 19.218979,233.790955 18.370495,231.429153 
	C35.001328,242.911087 52.597076,251.850220 72.681244,256.351562 
z"/>
<path fill="#D34434" opacity="1.000000" stroke="none" 
	d="
M273.188873,57.799339 
	C253.736725,47.465683 233.231537,44.360649 211.900986,45.932270 
	C192.977600,47.326534 175.162247,52.892151 159.319946,63.212067 
	C133.055649,80.321030 127.586067,117.327087 146.985489,142.379959 
	C148.502808,144.339462 150.144485,146.202667 152.114532,148.575775 
	C102.975571,148.575775 54.316765,148.575775 4.752014,148.575775 
	C6.011768,143.076065 6.842509,137.558929 8.540881,132.323242 
	C28.405752,71.084465 69.806015,34.429203 133.583160,24.068806 
	C160.517517,19.693405 187.695557,19.215511 214.468979,25.193432 
	C246.442383,32.332394 274.520996,47.453335 299.065979,69.161110 
	C300.419312,70.358017 302.290527,70.969330 303.920685,71.853218 
	C303.296814,72.576813 302.672943,73.300407 302.049072,74.024002 
	C292.545563,68.661972 283.042023,63.299942 273.188873,57.799339 
z"/>
<path fill="#D34434" opacity="1.000000" stroke="none" 
	d="
M304.033508,74.961807 
	C304.246155,75.133049 304.458801,75.304276 304.671448,75.475510 
	C304.426483,75.510834 304.181549,75.546165 303.944336,75.315323 
	C303.952057,75.049156 304.033508,74.961807 304.033508,74.961807 
z"/>
<path fill="#D34434" opacity="1.000000" stroke="none" 
	d="
M303.911072,75.092598 
	C303.598999,74.878639 303.327911,74.621239 303.056793,74.363838 
	C303.321625,74.367455 303.586456,74.371071 303.942383,74.668251 
	C304.033508,74.961807 303.952057,75.049156 303.911072,75.092598 
z"/>
<path fill="#D44434" opacity="1.000000" stroke="none" 
	d="
M354.166504,193.002472 
	C649.581543,193.000870 944.509888,193.000870 1239.665283,193.000870 
	C1239.665283,195.790359 1239.665283,198.047195 1239.665283,200.651733 
	C943.384949,200.651733 647.347656,200.651733 350.787964,200.651733 
	C351.920929,197.983109 347.742035,193.906662 354.166504,193.002472 
z"/>
<path fill="#3C246B" opacity="1.000000" stroke="none" 
	d="
M783.027466,142.000000 
	C783.027466,116.789955 783.027466,92.079918 783.027466,67.369873 
	C782.516418,67.187340 782.005371,67.004807 781.494324,66.822273 
	C777.539246,71.610596 773.509094,76.339157 769.642456,81.197884 
	C754.937012,99.676361 740.257507,118.175728 725.644043,136.726913 
	C723.681824,139.217819 722.219421,139.575897 719.595947,137.387695 
	C707.465088,127.269485 695.161255,117.358688 682.908630,107.386642 
	C682.311829,106.900917 681.614746,106.538414 680.106689,105.564743 
	C680.106689,129.693146 680.106689,153.032410 680.106689,176.666656 
	C673.845276,176.666656 668.275940,176.666656 662.365784,176.666656 
	C662.365784,130.905350 662.365784,85.331680 662.365784,38.954983 
	C669.752197,38.954983 677.212219,38.409496 684.518799,39.230156 
	C687.342773,39.547344 689.912048,42.851894 692.438171,44.984066 
	C708.199707,58.287483 723.973877,71.577202 739.601929,85.036369 
	C742.999207,87.962166 744.729858,86.223824 746.773621,83.635040 
	C757.491943,70.058083 768.328369,56.573490 778.943848,42.916981 
	C781.189148,40.028454 783.488586,38.672035 787.267883,38.719112 
	C803.595520,38.922523 819.927124,38.806160 836.257324,38.806156 
	C837.898560,38.806156 839.539795,38.806156 841.577026,38.806156 
	C841.577026,84.953239 841.577026,130.670761 841.577026,176.791641 
	C822.277039,176.791641 803.054016,176.791641 783.027466,176.791641 
	C783.027466,165.359268 783.027466,153.929626 783.027466,142.000000 
z"/>
<path fill="#3B246B" opacity="1.000000" stroke="none" 
	d="
M416.825684,156.355103 
	C414.887543,157.578964 412.987244,158.433365 411.906586,159.894150 
	C409.638123,162.960480 407.748688,166.314774 405.796143,169.605728 
	C400.807800,178.013474 398.443390,178.959991 387.558441,176.238510 
	C391.255127,169.439346 394.819031,162.777267 398.480530,156.169266 
	C411.387604,132.875580 424.326447,109.599495 437.256561,86.318558 
	C445.419037,71.621811 453.503998,56.880455 461.873230,42.302353 
	C462.779083,40.724487 465.236084,39.745594 467.176727,39.141895 
	C468.848267,38.621925 470.809723,39.033821 472.642975,39.033817 
	C485.246185,39.033802 485.048615,39.142780 491.276062,50.432873 
	C512.980530,89.782234 534.838501,129.046921 556.620972,168.353302 
	C558.055664,170.942139 559.346741,173.610519 560.978149,176.772079 
	C559.157776,176.944366 557.927002,177.160980 556.696045,177.162369 
	C537.696777,177.183914 518.697083,177.118774 499.698547,177.235229 
	C496.532074,177.254639 494.456390,176.573135 492.984497,173.457428 
	C490.786438,168.804352 488.331390,164.204803 485.382996,160.005646 
	C484.105560,158.186356 481.339264,156.365799 479.228058,156.340881 
	C458.566193,156.097122 437.899872,156.232635 416.825684,156.355103 
M438.505310,143.027206 
	C450.552338,143.027206 462.599365,143.027206 475.746979,143.027206 
	C466.654572,127.966316 458.225952,114.004898 449.284546,99.194077 
	C440.043274,114.194969 431.422882,128.188049 422.281219,143.027267 
	C428.221619,143.027267 432.864899,143.027267 438.505310,143.027206 
z"/>
<path fill="#3C246C" opacity="1.000000" stroke="none" 
	d="
M633.000000,63.000019 
	C633.000000,101.092857 633.000000,138.685715 633.000000,176.638397 
	C613.662170,176.638397 594.766846,176.638397 575.434692,176.638397 
	C575.434692,131.042358 575.434692,85.383659 575.434692,39.361794 
	C594.337402,39.361794 613.232788,39.361794 633.000000,39.361794 
	C633.000000,47.013168 633.000000,54.756599 633.000000,63.000019 
z"/>
<path fill="#D24334" opacity="1.000000" stroke="none" 
	d="
M1124.219116,176.041412 
	C1120.892334,170.011597 1117.899414,164.241699 1114.536133,158.696365 
	C1113.747192,157.395737 1111.712402,156.090912 1110.240234,156.078964 
	C1089.418213,155.909927 1068.593384,155.886810 1047.771973,156.099457 
	C1045.962158,156.117950 1043.721680,157.671280 1042.473022,159.170944 
	C1040.364624,161.703003 1038.473022,164.591934 1037.226929,167.632675 
	C1033.482544,176.770004 1027.096924,180.142456 1017.014160,176.968994 
	C1017.547058,175.838318 1018.124146,174.410629 1018.864197,173.073196 
	C1043.034180,129.392624 1067.194702,85.706787 1091.509766,42.107113 
	C1092.331543,40.633625 1094.693970,39.260838 1096.403076,39.177868 
	C1102.375000,38.887959 1109.521118,37.204105 1114.041870,39.818394 
	C1118.533447,42.415897 1120.498047,49.503456 1123.394775,54.719677 
	C1144.803955,93.272377 1166.170166,131.848969 1187.545532,170.420517 
	C1188.731445,172.560333 1189.877319,174.722260 1191.380005,177.498764 
	C1189.210815,177.611923 1187.798218,177.748703 1186.385498,177.749771 
	C1167.561035,177.764053 1148.736328,177.797211 1129.912476,177.699249 
	C1128.078613,177.689713 1126.249268,176.841934 1124.219116,176.041412 
M1104.162354,141.803391 
	C1103.885986,140.869476 1103.791748,139.825974 1103.305908,139.018143 
	C1096.113770,127.061630 1088.882935,115.128380 1081.614624,103.218048 
	C1080.994751,102.202332 1080.043823,101.388611 1078.774414,99.943436 
	C1069.956665,114.308563 1061.542358,128.016510 1052.321411,143.038498 
	C1057.883545,143.038498 1061.642456,143.075089 1065.400391,143.031845 
	C1078.172363,142.884888 1090.943970,142.709717 1104.162354,141.803391 
z"/>
<path fill="#D24434" opacity="1.000000" stroke="none" 
	d="
M884.723999,124.625397 
	C885.566895,125.134331 886.104492,125.330299 886.828491,125.748695 
	C887.558838,126.153267 888.102783,126.335411 888.832886,126.741699 
	C889.554443,127.162704 890.089783,127.359543 890.804016,127.784653 
	C892.367371,129.336395 893.564941,130.969299 895.165039,131.935898 
	C912.747803,142.557693 931.831604,148.976715 952.117676,151.909409 
	C959.055969,152.912460 965.714417,149.194901 968.385681,142.967712 
	C971.157715,136.505493 969.030090,129.252609 963.175903,124.832916 
	C952.190430,116.539322 938.893677,114.353065 926.096802,111.037933 
	C919.059143,109.214790 911.746338,108.241234 904.494690,107.498131 
	C884.352600,105.434113 866.692932,80.223198 883.937683,57.526432 
	C885.327087,55.697807 886.494995,53.700886 887.519165,51.525620 
	C887.970947,51.188488 888.889587,51.367825 889.336121,50.989632 
	C903.232422,39.222488 920.010803,36.268257 937.358826,35.867496 
	C956.700562,35.420685 974.418030,41.153355 990.511780,51.881668 
	C991.065491,52.250786 991.605469,52.647175 992.111816,53.077957 
	C992.344360,53.275787 992.479736,53.587715 992.894409,54.188770 
	C988.014221,59.450020 983.080261,64.769180 978.934387,69.238693 
	C970.929321,66.799896 963.819214,64.006699 956.444580,62.612251 
	C951.700867,61.715263 946.524841,62.553890 941.624329,63.217903 
	C937.966797,63.713509 935.801819,66.317711 935.830688,70.238762 
	C935.859375,74.133659 937.968140,76.358116 941.686829,77.177734 
	C953.702698,79.826065 965.753113,82.327217 977.727295,85.152168 
	C996.316650,89.537804 1009.737488,103.407112 1011.295715,122.158829 
	C1012.735168,139.481384 1004.874512,153.579391 991.111694,163.915344 
	C978.800659,173.161011 964.088745,176.618866 949.207336,178.742477 
	C926.108276,182.038773 904.321716,177.375549 883.324829,167.364456 
	C877.960999,164.807037 877.786255,160.729034 877.414429,156.623566 
	C876.668030,148.383087 876.691101,140.072922 876.675110,131.388062 
	C877.146423,130.148941 877.339233,129.313263 877.745850,128.230408 
	C878.132935,127.422791 878.306213,126.862350 878.739258,126.149445 
	C880.805603,125.435463 882.612122,124.873947 884.723999,124.625397 
z"/>
<path fill="#FCFDFC" opacity="1.000000" stroke="none" 
	d="
M1067.617432,239.735931 
	C1067.223267,244.220337 1067.448730,248.555176 1066.090454,252.318420 
	C1063.462524,259.599487 1057.257202,261.886169 1045.480957,260.776367 
	C1045.480957,249.802170 1045.480957,238.780243 1045.480957,227.762283 
	C1057.134644,225.161606 1064.744385,229.164017 1067.617432,239.735931 
z"/>
<path fill="#FAFCFB" opacity="1.000000" stroke="none" 
	d="
M773.028748,240.055115 
	C769.146362,241.134048 765.559021,241.928268 761.417297,242.845230 
	C761.417297,237.028381 761.417297,232.314194 761.417297,227.235367 
	C765.851013,226.945374 770.561829,225.480286 773.846558,229.632843 
	C776.378723,232.833893 775.675537,236.496780 773.028748,240.055115 
z"/>
<path fill="#F8F9F6" opacity="1.000000" stroke="none" 
	d="
M381.837646,235.225464 
	C383.329376,239.829987 384.713898,244.067215 386.271240,248.833389 
	C381.734100,248.833389 377.712677,248.833389 372.947021,248.833389 
	C375.082092,242.335785 377.148376,236.047501 379.495117,228.905624 
	C380.461945,231.480133 381.096222,233.169159 381.837646,235.225464 
z"/>
<path fill="#F8F9F6" opacity="1.000000" stroke="none" 
	d="
M962.273499,239.679138 
	C963.326355,242.857178 964.245605,245.662643 965.317078,248.932419 
	C960.642090,248.932419 956.577942,248.932419 951.939209,248.932419 
	C954.087830,242.333496 956.126465,236.072449 958.517822,228.728043 
	C959.947144,232.902496 961.043579,236.104538 962.273499,239.679138 
z"/>
<path fill="#F8F9F6" opacity="1.000000" stroke="none" 
	d="
M831.717773,249.249756 
	C828.323792,249.251953 825.382751,249.251953 821.821045,249.251953 
	C824.100403,242.279282 826.146179,236.021088 828.552612,228.659546 
	C830.771240,235.242737 832.607971,240.838989 834.552979,246.397385 
	C835.413025,248.855179 834.191467,249.324661 831.717773,249.249756 
z"/>
<path fill="#09080A" opacity="1.000000" stroke="none" 
	d="
M438.006714,143.027237 
	C432.864899,143.027267 428.221619,143.027267 422.281219,143.027267 
	C431.422882,128.188049 440.043274,114.194969 449.284546,99.194077 
	C458.225952,114.004898 466.654572,127.966316 475.746979,143.027206 
	C462.599365,143.027206 450.552338,143.027206 438.006714,143.027237 
M462.392181,139.989761 
	C465.145996,139.989761 467.899811,139.989761 471.377655,139.989761 
	C463.834137,127.526085 456.703369,115.744423 449.253601,103.435646 
	C441.610107,115.860802 434.353455,127.657051 426.766815,139.989761 
	C438.832642,139.989761 450.125946,139.989761 462.392181,139.989761 
z"/>
<path fill="#110B0A" opacity="1.000000" stroke="none" 
	d="
M1103.938965,142.174347 
	C1090.943970,142.709717 1078.172363,142.884888 1065.400391,143.031845 
	C1061.642456,143.075089 1057.883545,143.038498 1052.321411,143.038498 
	C1061.542358,128.016510 1069.956665,114.308563 1078.774414,99.943436 
	C1080.043823,101.388611 1080.994751,102.202332 1081.614624,103.218048 
	C1088.882935,115.128380 1096.113770,127.061630 1103.305908,139.018143 
	C1103.791748,139.825974 1103.885986,140.869476 1103.938965,142.174347 
M1065.048218,126.530136 
	C1062.232300,131.070786 1059.416504,135.611420 1056.379150,140.509064 
	C1071.931030,140.509064 1086.354248,140.509064 1101.620361,140.509064 
	C1094.064697,127.977539 1086.838989,115.993134 1079.271973,103.442459 
	C1074.434448,111.235817 1069.893188,118.551849 1065.048218,126.530136 
z"/>
<path fill="#FBFBFB" opacity="1.000000" stroke="none" 
	d="
M461.905701,139.989761 
	C450.125946,139.989761 438.832642,139.989761 426.766815,139.989761 
	C434.353455,127.657051 441.610107,115.860802 449.253601,103.435646 
	C456.703369,115.744423 463.834137,127.526085 471.377655,139.989761 
	C467.899811,139.989761 465.145996,139.989761 461.905701,139.989761 
z"/>
<path fill="#F7F7F7" opacity="1.000000" stroke="none" 
	d="
M1065.200073,126.199013 
	C1069.893188,118.551849 1074.434448,111.235817 1079.271973,103.442459 
	C1086.838989,115.993134 1094.064697,127.977539 1101.620361,140.509064 
	C1086.354248,140.509064 1071.931030,140.509064 1056.379150,140.509064 
	C1059.416504,135.611420 1062.232300,131.070786 1065.200073,126.199013 
z"/>
</svg>