<svg version="1.1" id="Layer_1" xmlns="http://www.w3.org/2000/svg" xmlns:xlink="http://www.w3.org/1999/xlink" x="0px" y="0px"
	 width="100%" viewBox="0 0 557 268" enable-background="new 0 0 557 268" xml:space="preserve">
<path fill="#FEFEFE" opacity="1.000000" stroke="none" 
	d="
M409.000000,269.000000 
	C274.207367,269.000000 139.914719,268.985535 5.622153,269.079590 
	C2.100702,269.082062 0.880271,268.648529 0.887181,264.624634 
	C1.035671,178.151093 1.031662,91.677185 0.892336,5.203618 
	C0.886325,1.473079 1.812033,0.911463 5.294027,0.913334 
	C188.071930,1.011521 370.849854,1.008448 553.627808,0.932331 
	C556.893982,0.930971 558.130920,1.174777 558.123535,5.125456 
	C557.961731,91.765564 557.971924,178.406082 558.101379,265.046295 
	C558.106628,268.561798 557.281555,269.099884 553.955750,269.090729 
	C505.804108,268.958344 457.652008,269.000000 409.000000,269.000000 
z"/>
<path fill="#03A9DE" opacity="1.000000" stroke="none" 
	d="
M227.526337,121.668106 
	C221.953186,127.358177 216.697678,132.915237 211.510681,138.535507 
	C210.211517,139.943146 209.283722,140.752747 207.632202,138.803085 
	C197.641800,127.009148 187.553452,115.298180 177.520187,103.540413 
	C177.368256,103.362366 177.501205,102.941208 177.501205,102.149422 
	C182.225433,102.149422 186.993942,101.912910 191.725754,102.227844 
	C195.210052,102.459755 196.650055,101.350113 196.238907,97.440323 
	C198.189697,95.210991 200.359787,95.993370 202.430740,96.304848 
	C210.093567,97.457352 217.747284,98.670258 225.790649,99.989296 
	C227.190765,100.485100 227.805542,101.351433 228.903320,102.179337 
	C232.025009,103.031105 234.860443,102.544495 237.661835,102.729645 
	C239.587051,102.856888 242.165421,102.217033 242.971970,104.402435 
	C243.694138,106.359215 241.872849,108.086815 240.576935,109.571243 
	C237.850952,112.693771 234.787521,115.494339 231.604996,118.694458 
	C230.243607,119.902702 229.249969,120.988945 227.526337,121.668106 
z"/>
<path fill="#D77247" opacity="1.000000" stroke="none" 
	d="
M299.583588,77.362320 
	C305.355682,71.688797 310.744446,66.058571 316.083771,60.381855 
	C317.513428,58.861843 318.548767,58.073524 320.356140,60.199791 
	C330.330566,71.934181 340.446350,83.548439 351.333069,96.152550 
	C345.814362,96.152550 341.291412,96.066673 336.774689,96.196686 
	C335.072998,96.245659 333.078949,95.351318 331.489746,97.608101 
	C329.811249,99.506401 327.960846,99.325905 326.140778,99.135887 
	C318.389893,98.326675 310.639923,97.514595 302.422729,97.204391 
	C301.182587,96.991730 300.382477,96.767258 299.190613,96.472382 
	C295.656921,96.248062 292.515747,96.398651 289.382965,96.272911 
	C287.489075,96.196892 284.987732,96.861435 284.107513,94.646996 
	C283.345612,92.730370 285.304779,91.375481 286.561768,90.150551 
	C290.115784,86.687225 293.381744,82.973770 296.825745,78.876579 
	C297.724426,78.061020 298.405426,77.643005 299.583588,77.362320 
z"/>
<path fill="#B3B5B8" opacity="1.000000" stroke="none" 
	d="
M299.834473,76.962784 
	C299.530182,77.856232 299.074890,78.375999 298.385193,79.020737 
	C296.999451,78.623886 296.230225,77.632057 296.051575,76.506035 
	C295.207764,71.188606 291.816223,70.133125 287.048828,70.424408 
	C281.918030,70.737907 276.751678,70.583191 271.605286,70.470070 
	C268.087738,70.392761 266.394440,71.685669 266.473145,75.386169 
	C266.593170,81.030785 266.487518,86.680870 266.509827,92.328712 
	C266.518616,94.555008 267.076691,96.390030 269.736847,96.396881 
	C279.023956,96.420807 288.316132,96.930641 297.595490,96.162430 
	C297.895508,96.137589 298.162079,95.840248 298.746887,95.358215 
	C299.609924,95.224609 300.151337,95.366631 300.856598,95.750351 
	C303.357788,99.304749 302.310333,103.010834 302.189819,107.047295 
	C301.371643,110.053017 301.685211,112.810310 300.413879,115.682663 
	C299.851288,116.062447 299.555878,116.084023 298.913818,115.830551 
	C296.924408,112.599281 297.495056,109.375038 297.604889,106.261559 
	C297.712646,103.207062 296.802002,101.523895 293.476562,101.526093 
	C285.823456,101.531136 278.170471,101.483147 270.517181,101.547501 
	C267.821442,101.570175 266.594910,102.909019 266.563019,105.544586 
	C266.458374,114.195900 266.533051,122.847115 266.525208,131.498367 
	C266.522034,135.020645 268.738800,135.430923 271.495667,135.498489 
	C278.474792,135.669510 285.467865,135.063965 292.852783,136.018646 
	C293.517609,136.331955 293.764465,136.496841 294.239685,137.045181 
	C294.761475,139.072372 294.142151,140.301498 292.343018,141.242554 
	C284.727570,139.659332 277.431458,140.658798 270.179871,140.491837 
	C267.406860,140.427994 266.447540,142.067795 266.437744,144.611465 
	C266.419891,149.241394 266.660522,153.886093 266.359406,158.496735 
	C266.078491,162.798416 267.785034,164.240295 272.226807,163.490158 
	C273.611633,164.351151 273.140228,165.004349 272.243073,165.983948 
	C261.810364,170.181061 253.431961,167.110489 246.088715,159.309128 
	C248.831955,157.097290 250.576416,159.524078 252.588806,160.734467 
	C254.992599,162.180298 257.537079,164.678177 260.214966,163.448486 
	C263.019379,162.160690 261.444946,158.696152 261.585968,156.200272 
	C261.791260,152.565704 261.621277,148.909195 261.632629,145.262543 
	C261.641083,142.544968 260.360748,141.365616 257.683716,141.367920 
	C252.379074,141.372498 247.074234,141.378601 241.769623,141.363586 
	C238.829468,141.355255 238.313843,142.635345 239.553986,145.102753 
	C240.974213,147.928528 242.642776,150.583191 244.575851,153.086273 
	C245.773804,154.637436 247.278900,156.127197 246.236603,158.715668 
	C237.041870,151.504807 233.547775,140.937897 230.085632,130.364777 
	C229.213745,127.702072 228.503204,124.986542 227.450928,122.036514 
	C227.910828,120.964325 228.638306,120.150925 229.623016,119.217148 
	C232.786789,121.867966 232.268127,125.861488 233.445755,129.246674 
	C235.445724,134.995743 235.871765,135.469696 241.887466,135.507538 
	C246.703049,135.537842 251.520935,135.438339 256.334198,135.532990 
	C259.785248,135.600830 261.579437,134.413956 261.535828,130.666763 
	C261.441132,122.531242 261.540527,114.393097 261.488922,106.256226 
	C261.474792,104.030434 261.386993,101.663040 258.319489,101.616325 
	C249.360123,101.479851 240.396896,101.179016 231.442368,101.788254 
	C230.420319,101.857796 229.546494,102.356270 228.459625,103.309753 
	C227.020279,103.321953 227.188095,102.391342 226.991455,101.318634 
	C224.915955,98.209923 225.525330,95.092995 225.990646,91.571564 
	C226.411591,90.571281 226.822235,90.141571 227.799332,89.977890 
	C230.929291,96.505852 230.929291,96.509430 238.265198,96.511833 
	C244.239624,96.513786 250.217331,96.395630 256.187286,96.552620 
	C259.927856,96.650993 261.682465,95.346069 261.550812,91.402222 
	C261.368225,85.932014 261.499023,80.450790 261.503662,74.974434 
	C261.506042,72.193649 260.469147,70.480263 257.470001,70.547478 
	C249.356628,70.729279 241.215942,69.812187 232.704590,71.221848 
	C231.987167,71.292946 231.696182,71.286575 231.039703,71.037865 
	C229.710007,68.033463 230.122818,65.637650 232.961594,63.866348 
	C238.051300,66.595421 243.154205,65.421158 248.069168,65.475952 
	C261.526733,65.626007 261.663422,65.525642 261.464355,52.116375 
	C261.378937,46.361694 262.590424,40.495750 260.221954,34.517769 
	C259.624847,33.748367 259.329071,33.277691 258.979675,32.369770 
	C266.489136,29.196030 274.737518,31.692074 280.850983,38.879433 
	C277.140228,38.874489 275.388580,35.803440 272.659088,34.667141 
	C265.776245,31.801781 264.988892,32.134060 264.987244,39.317333 
	C264.985382,47.304626 265.082458,55.293636 264.937408,63.278286 
	C264.885895,66.114738 265.872467,67.042625 268.677399,66.989685 
	C276.329132,66.845253 283.987091,66.847694 291.639038,66.986778 
	C294.591400,67.040443 294.953308,66.185654 293.952759,63.539722 
	C291.293701,56.507812 288.280579,49.703518 283.485809,43.819931 
	C282.773346,42.945679 281.816589,42.165821 282.038910,40.831413 
	C288.203247,43.846104 294.317078,56.241608 299.834473,76.962784 
z"/>
<path fill="#130F15" opacity="1.000000" stroke="none" 
	d="
M168.828003,206.098145 
	C168.828018,211.076294 168.757446,215.569977 168.859482,220.059753 
	C168.906525,222.130722 167.774551,224.972427 171.630600,225.130997 
	C172.612198,225.171356 172.696442,226.234070 172.578033,227.096725 
	C172.454376,227.997742 171.675171,227.981903 171.069717,227.990646 
	C168.076065,228.033890 165.081467,228.017609 162.087234,228.011368 
	C161.330750,228.009796 160.770432,227.664719 160.866302,226.853058 
	C160.937012,226.254120 161.221283,225.185654 161.453323,225.173889 
	C165.680313,224.959793 164.202423,221.760040 164.278625,219.609802 
	C164.441589,215.011902 164.328537,210.404190 164.328537,205.803528 
	C162.517624,205.409424 162.519974,206.920670 162.124817,207.851944 
	C159.790176,213.354080 157.561432,218.901520 155.188171,224.386627 
	C154.587006,225.776062 154.719604,227.915314 152.424210,228.007187 
	C150.044342,228.102417 150.116638,225.927109 149.517654,224.538879 
	C147.281662,219.356613 145.201721,214.107269 143.005768,208.907349 
	C142.527252,207.774246 142.495499,206.259308 140.260986,205.663086 
	C140.260986,211.716202 140.246262,217.581528 140.292755,223.446350 
	C140.295990,223.855240 140.656677,224.432236 141.017578,224.635498 
	C142.129303,225.261581 144.590576,224.421249 143.965500,226.871643 
	C143.367813,229.214767 141.172379,227.681625 139.727295,227.993988 
	C138.773590,228.200119 137.720474,228.154907 136.745331,228.004807 
	C135.233826,227.772156 133.064911,229.009796 132.340607,227.009293 
	C131.492477,224.666794 134.009689,225.254044 135.113159,224.599197 
	C136.390030,223.841476 135.891129,222.521881 135.901428,221.437012 
	C135.951935,216.113525 136.052551,210.784988 135.872849,205.467102 
	C135.777405,202.642944 137.489380,198.935959 132.760376,197.777878 
	C132.009460,197.593994 131.743561,196.097992 132.695404,195.295837 
	C134.744858,193.568741 141.744263,195.458344 142.774216,198.021790 
	C145.497406,204.799454 148.169113,211.597794 150.885559,218.378189 
	C151.245438,219.276459 151.746399,220.118210 152.510315,221.640182 
	C155.755829,213.572571 158.756149,206.100922 161.768066,198.633942 
	C162.998154,195.584412 169.271210,193.452240 171.954636,195.158569 
	C173.089417,195.880157 172.830505,197.469986 172.245422,197.610138 
	C167.361954,198.779785 169.106659,202.601089 168.828003,206.098145 
z"/>
<path fill="#171111" opacity="1.000000" stroke="none" 
	d="
M323.768768,196.824677 
	C328.638641,204.536758 333.292175,211.925446 337.945709,219.314133 
	C338.302612,219.233704 338.659546,219.153259 339.016449,219.072830 
	C339.016449,213.020279 338.949402,206.966522 339.056183,200.915863 
	C339.089447,199.029419 337.842987,198.803696 336.606323,198.401642 
	C335.464844,198.030518 335.039886,197.264465 335.225616,196.124573 
	C335.461487,194.676834 336.647217,195.026520 337.550385,194.986359 
	C339.046906,194.919800 340.578125,194.781387 342.040100,195.014954 
	C343.702942,195.280609 346.033661,193.810715 346.931183,195.960464 
	C347.895111,198.269211 345.338501,198.277969 344.082642,199.146561 
	C342.752594,200.066452 343.393463,201.602310 343.383057,202.856262 
	C343.325104,209.853241 343.434845,216.852600 343.287231,223.846939 
	C343.258087,225.227051 344.547699,227.354095 342.017120,227.992798 
	C339.679047,228.582916 338.441711,227.219009 337.281677,225.349655 
	C333.245239,218.844940 329.064728,212.429565 324.932159,205.984604 
	C324.523254,205.346939 324.067566,204.739304 322.677643,204.319748 
	C322.677643,210.364151 322.673798,216.408554 322.680908,222.452957 
	C322.682343,223.661819 322.752228,224.880142 324.407898,224.905365 
	C325.905396,224.928177 326.609222,225.664337 326.257202,227.098038 
	C325.924622,228.452728 324.680481,227.980469 323.777374,228.015411 
	C322.113770,228.079773 320.432037,228.166260 318.784210,227.992950 
	C317.420258,227.849472 315.450653,228.949249 314.798248,227.141220 
	C313.979553,224.872238 316.274445,225.281296 317.454712,224.631531 
	C318.612457,223.994141 318.145630,222.538284 318.152191,221.423630 
	C318.185486,215.759232 318.223236,210.093719 318.141937,204.430283 
	C318.106934,201.989258 319.203979,199.096710 315.373535,198.000488 
	C314.265015,197.683212 313.986755,195.218735 315.734039,195.167450 
	C318.323151,195.091476 321.411682,193.544952 323.768768,196.824677 
z"/>
<path fill="#0F080E" opacity="1.000000" stroke="none" 
	d="
M205.943161,205.177948 
	C205.772095,202.107468 207.041412,199.027191 202.952576,197.928452 
	C201.850006,197.632187 201.472549,195.315582 203.369537,195.159592 
	C206.632935,194.891235 210.079422,193.891968 212.386826,198.119400 
	C215.966095,204.677155 220.226013,210.863846 224.212906,217.198074 
	C224.712830,217.992371 225.094482,218.968063 226.815567,219.243866 
	C226.815567,212.945084 226.788757,206.850952 226.837494,200.757401 
	C226.847626,199.489090 226.191666,198.991241 225.147705,198.698502 
	C223.777756,198.314392 222.544174,197.742493 223.038422,195.992798 
	C223.489059,194.397522 224.916382,195.049652 225.944443,195.007065 
	C228.105209,194.917557 230.273331,194.942657 232.436310,195.000061 
	C233.337921,195.023987 234.523590,194.689148 234.756638,196.135727 
	C234.940857,197.279266 234.510376,198.187943 233.359955,198.390778 
	C230.826904,198.837341 231.027100,200.637238 231.038406,202.510620 
	C231.082672,209.836349 231.110779,217.163284 231.002670,224.487671 
	C230.984695,225.704865 232.088913,227.694046 229.566666,227.996887 
	C227.802399,228.208740 226.510193,227.823669 225.443008,226.078720 
	C221.799911,220.121902 217.947540,214.292877 214.161697,208.423691 
	C213.299698,207.087326 212.384155,205.785492 210.197296,204.679855 
	C210.197296,210.836075 210.191437,216.992310 210.203629,223.148499 
	C210.205444,224.072159 210.640503,224.739136 211.618042,224.848541 
	C213.009689,225.004303 214.521286,225.165894 213.939346,227.109283 
	C213.487030,228.619720 211.991684,227.892181 210.945923,227.994583 
	C209.791473,228.107620 208.601852,228.140884 207.455612,227.992401 
	C205.739059,227.770065 203.260315,229.023605 202.449829,227.190735 
	C201.315445,224.625458 204.577332,225.519333 205.381531,224.466751 
	C205.986069,223.675507 205.910751,222.270203 205.921555,221.136200 
	C205.970657,215.975174 205.943130,210.813431 205.943161,205.177948 
z"/>
<path fill="#AC5657" opacity="1.000000" stroke="none" 
	d="
M272.407471,166.235443 
	C272.249573,165.754166 272.512817,165.187927 272.939819,164.341110 
	C273.200806,163.872360 273.298096,163.684189 273.611267,163.261719 
	C274.142609,162.732559 274.460907,162.440826 275.023132,161.921783 
	C282.923981,156.753113 286.604370,148.617142 291.830627,141.324020 
	C292.700745,140.299698 293.254517,139.420517 293.968750,138.268555 
	C301.892792,136.246338 309.409821,136.563614 316.379547,141.123169 
	C309.661957,149.867294 301.679749,156.449509 291.926483,160.709244 
	C285.821259,163.375702 279.531891,165.522095 272.407471,166.235443 
z"/>
<path fill="#110D12" opacity="1.000000" stroke="none" 
	d="
M416.937927,224.881378 
	C416.661682,222.850281 416.394440,221.207047 416.347992,219.557587 
	C416.240509,215.742111 414.308838,213.829865 410.548401,213.458771 
	C403.935608,212.806198 400.489349,217.547287 403.175629,223.704285 
	C403.298615,223.986176 403.413940,224.323639 403.638855,224.499954 
	C404.750580,225.371475 407.793732,224.602982 406.743958,227.159088 
	C405.969818,229.044052 403.478271,227.770279 401.771027,227.999374 
	C400.627502,228.152817 399.427460,228.159042 398.287994,227.991409 
	C397.162415,227.825806 395.404022,228.850784 395.109589,226.769180 
	C394.872955,225.096512 396.286407,225.136871 397.409973,224.864273 
	C399.615692,224.329132 398.752350,222.471512 398.772583,221.158691 
	C398.862305,215.339447 398.900940,209.516022 398.767609,203.698456 
	C398.714355,201.372864 400.202148,198.047180 395.764252,197.777603 
	C395.038239,197.733521 395.033447,196.814804 395.079681,196.141968 
	C395.161469,194.951523 396.104675,194.987167 396.877686,194.994965 
	C402.193848,195.048569 407.537720,194.849579 412.815613,195.342529 
	C416.410400,195.678284 419.325439,197.627426 420.447906,201.535400 
	C421.698364,205.888870 419.838776,208.928787 416.374756,211.569626 
	C419.926514,213.844635 421.096771,217.104645 420.848175,221.041214 
	C420.786865,222.012177 420.930573,223.042114 421.207611,223.977539 
	C421.609344,225.334030 425.608093,225.759903 422.787231,227.712540 
	C420.816895,229.076431 418.303558,227.695496 416.937927,224.881378 
z"/>
<path fill="#171111" opacity="1.000000" stroke="none" 
	d="
M310.353516,222.388580 
	C311.276428,227.304962 309.312836,228.425903 305.017578,228.132401 
	C299.220825,227.736282 293.376282,228.067993 287.553253,228.000595 
	C286.575073,227.989273 285.069489,228.729752 284.835907,226.823502 
	C284.686981,225.608124 285.178558,224.943100 286.453613,224.915436 
	C288.434875,224.872452 288.309814,223.403076 288.312225,222.076279 
	C288.324860,215.087738 288.337433,208.099045 288.298187,201.110687 
	C288.292145,200.036819 288.720917,198.544220 287.119873,198.235245 
	C285.682678,197.957901 284.358551,197.730896 284.893311,195.874496 
	C285.358521,194.259369 286.851624,195.012833 287.865570,195.001862 
	C294.354187,194.931671 300.844086,194.944061 307.333191,194.986420 
	C308.517181,194.994125 310.292603,194.387115 310.153931,196.622452 
	C310.025208,198.697098 311.011139,201.057953 309.481750,202.746078 
	C308.845398,203.448486 306.456116,203.678574 306.427307,201.745712 
	C306.366333,197.652496 303.607574,198.513458 301.238556,198.461243 
	C300.573303,198.446564 299.907471,198.458862 299.241882,198.458984 
	C293.280457,198.459991 290.880493,202.027740 292.825043,207.709839 
	C293.406189,209.407928 294.580109,208.907639 295.606567,208.940018 
	C298.100006,209.018677 300.599060,208.917114 303.092834,208.990402 
	C304.128967,209.020859 305.583069,208.537552 305.648895,210.433655 
	C305.716644,212.384354 304.432251,212.495819 302.997101,212.460999 
	C302.165649,212.440796 301.326050,212.388016 300.502625,212.472214 
	C298.078918,212.720123 294.660339,211.245575 293.437347,213.186249 
	C291.720032,215.911407 292.980835,219.636597 292.880859,222.930649 
	C292.840698,224.252441 293.799042,224.521057 294.887115,224.522202 
	C298.048492,224.525497 301.209900,224.533218 304.371246,224.525055 
	C306.522858,224.519501 306.130951,222.643906 306.817657,221.436035 
	C308.105408,219.170914 309.672913,218.479538 310.353516,222.388580 
z"/>
<path fill="#CC6949" opacity="1.000000" stroke="none" 
	d="
M301.136902,108.298409 
	C300.861633,104.276085 300.896576,100.593399 300.975983,96.451370 
	C310.915070,95.581192 320.660919,97.353409 330.873718,97.994072 
	C331.695801,102.131386 331.163879,106.216438 330.324646,110.646561 
	C327.176758,113.151184 323.955170,111.726524 320.960480,111.424232 
	C314.429260,110.764946 307.689728,111.348724 301.136902,108.298409 
z"/>
<path fill="#110D12" opacity="1.000000" stroke="none" 
	d="
M259.010315,219.686798 
	C262.109528,224.404602 266.286438,224.944153 271.070190,224.245270 
	C274.153595,223.794815 275.277985,222.432388 275.113434,219.297623 
	C274.984558,216.842529 274.929779,214.963745 271.723083,215.433029 
	C270.233185,215.651062 269.615875,214.860733 269.656616,213.399948 
	C269.697937,211.919357 270.795563,211.759247 271.723175,212.018387 
	C274.221710,212.716339 277.781464,210.035721 279.206238,213.463058 
	C281.234924,218.343277 279.043213,224.756882 275.470612,226.419327 
	C268.673920,229.582031 260.723602,228.064880 256.333557,222.767441 
	C251.660965,217.128983 251.424500,206.677094 255.836487,200.792145 
	C259.886475,195.390015 267.518250,193.421295 274.296021,196.169632 
	C277.130524,197.318985 279.850342,198.732071 279.076813,202.657150 
	C278.893311,203.588318 279.183746,204.753220 277.717316,204.828308 
	C276.808960,204.874802 276.065002,204.571289 275.891327,203.566818 
	C274.986237,198.331924 270.945099,198.336975 267.084839,198.558731 
	C262.494080,198.822464 259.342896,201.329605 257.929688,205.774353 
	C256.460480,210.395248 256.605072,214.941711 259.010315,219.686798 
z"/>
<path fill="#070312" opacity="1.000000" stroke="none" 
	d="
M390.209839,202.471420 
	C388.904602,202.886108 387.488892,203.642212 386.932220,202.196136 
	C386.386627,200.778946 387.179993,198.541367 384.670258,198.482773 
	C381.188629,198.401489 377.292145,197.577621 374.330963,198.843750 
	C371.277313,200.149414 373.532349,204.185379 373.101135,206.980881 
	C372.727081,209.405975 374.703339,208.952881 376.108032,208.974030 
	C378.767212,209.014099 381.427399,208.982529 384.087097,208.993942 
	C385.156982,208.998535 386.006470,209.191452 385.959167,210.613647 
	C385.916962,211.880798 385.337433,212.397430 384.141968,212.398239 
	C383.144806,212.398911 382.147705,212.417725 381.150513,212.422729 
	C372.763428,212.464783 371.472900,214.124237 373.014709,222.506973 
	C373.277832,223.937607 373.788239,224.566666 375.186829,224.562225 
	C378.345123,224.552200 381.503845,224.531784 384.661682,224.571671 
	C386.825897,224.598999 386.969818,223.138229 387.013062,221.558777 
	C387.049530,220.226990 387.896362,219.971512 389.014252,219.992706 
	C390.222076,220.015640 390.601105,220.598434 390.837402,221.785629 
	C391.811005,226.677216 390.832581,228.005417 385.936310,228.012268 
	C379.785645,228.020859 373.634857,228.031662 367.484436,227.991776 
	C366.603333,227.986069 365.382812,228.377640 365.127594,226.942078 
	C364.920868,225.779449 365.350098,224.981827 366.656555,224.965790 
	C369.292908,224.933411 368.819489,222.993607 368.824707,221.404892 
	C368.846527,214.755585 368.859802,208.105972 368.810150,201.456970 
	C368.801086,200.246353 369.382599,198.590210 367.499817,198.182556 
	C366.162140,197.892914 364.570129,197.871567 365.188751,195.935440 
	C365.747192,194.187531 367.459076,195.043396 368.620544,195.029022 
	C375.435059,194.944504 382.251190,194.993301 389.529907,195.070618 
	C390.996460,197.404724 390.299713,199.771545 390.209839,202.471420 
z"/>
<path fill="#110D12" opacity="1.000000" stroke="none" 
	d="
M453.621704,199.413315 
	C454.735657,197.542908 454.236725,194.913498 457.207764,194.945465 
	C460.165741,194.977325 459.928497,197.519806 460.590363,199.157288 
	C463.513611,206.389389 466.249176,213.697357 469.054810,220.977036 
	C469.413422,221.907562 469.837891,222.816437 470.137604,223.765121 
	C470.630859,225.326370 474.731537,225.463699 472.601654,227.413940 
	C470.677979,229.175369 467.165680,228.130768 464.395599,227.839035 
	C463.205536,227.713699 463.525787,226.169403 463.963470,225.333237 
	C466.149261,221.157928 464.839874,218.566940 460.351501,218.461472 
	C457.691376,218.398941 455.012512,218.276871 452.370911,218.509140 
	C449.396027,218.770721 447.898926,222.666733 449.804077,225.070343 
	C451.472107,227.174850 450.751343,227.935074 448.417450,228.018158 
	C447.254364,228.059586 446.078735,228.122681 444.926880,228.002518 
	C443.701904,227.874756 442.042908,228.716812 441.355499,227.214294 
	C440.537598,225.426346 442.419922,225.365601 443.328674,224.560471 
	C444.231171,223.760880 444.594635,222.303101 445.076996,221.087326 
	C447.893188,213.988846 450.674927,206.876678 453.621704,199.413315 
z"/>
<path fill="#0F080E" opacity="1.000000" stroke="none" 
	d="
M109.205116,217.588135 
	C110.878288,220.487701 110.428734,224.271576 114.065086,225.504166 
	C114.174011,225.541107 114.266685,225.788513 114.272041,225.941132 
	C114.299873,226.733734 114.546822,227.880936 113.441772,227.913376 
	C110.808464,227.990677 108.129128,228.035400 105.549400,227.606277 
	C104.589027,227.446503 105.045898,226.007187 105.636414,225.143219 
	C107.809448,221.963898 106.350807,218.648834 102.627098,218.462509 
	C99.977341,218.329910 97.310699,218.333755 94.660400,218.460587 
	C90.841026,218.643372 89.364059,221.835754 91.469940,225.128265 
	C92.496643,226.733505 92.500114,227.924805 90.160995,228.011597 
	C89.331970,228.042358 88.489090,228.109055 87.673347,228.001480 
	C86.086548,227.792206 83.930588,228.898361 83.011742,227.379166 
	C81.678665,225.175079 84.883354,225.319534 85.413895,224.017700 
	C87.850914,218.037842 90.181427,212.014557 92.546265,206.005310 
	C93.698654,203.076981 94.889000,200.162262 95.969513,197.207504 
	C96.466354,195.848862 97.026283,194.938736 98.727676,194.934158 
	C100.472565,194.929459 100.917915,195.966293 101.413254,197.272079 
	C103.939857,203.932648 106.516304,210.574310 109.205116,217.588135 
z"/>
<path fill="#C2634D" opacity="1.000000" stroke="none" 
	d="
M300.610565,108.280655 
	C310.299744,108.971397 319.772827,109.984024 329.683228,110.997223 
	C329.886719,114.643272 328.847931,118.102257 327.421143,121.794403 
	C324.368256,124.057884 321.370972,122.596458 318.503845,122.435715 
	C312.432770,122.095345 306.329498,121.860168 299.996094,120.152145 
	C299.112305,119.623032 298.749420,119.185341 298.477722,118.210480 
	C298.522430,117.199471 298.797211,116.721275 299.612244,116.117050 
	C300.107971,113.456078 300.251190,111.029305 300.610565,108.280655 
z"/>
<path fill="#059DD6" opacity="1.000000" stroke="none" 
	d="
M226.746658,90.685715 
	C227.060806,94.040199 227.056259,97.074226 226.989273,100.560013 
	C216.858658,100.731232 207.115250,98.041595 196.744141,96.998047 
	C195.814270,93.779449 197.044098,90.710297 197.306854,87.193192 
	C198.678772,86.346642 199.837860,85.520966 201.211212,85.752380 
	C209.638000,87.172333 218.300644,87.311462 226.746658,90.685715 
z"/>
<path fill="#137CBF" opacity="1.000000" stroke="none" 
	d="
M233.295502,63.618439 
	C231.425613,65.896492 231.530685,68.461800 230.393280,71.006676 
	C229.380768,73.339355 227.603485,73.342674 225.999985,73.139252 
	C219.932922,72.369606 213.901596,71.346344 207.899139,70.168251 
	C206.358505,69.865883 205.128555,69.105843 204.727341,67.086037 
	C206.316254,63.009754 208.830429,60.027378 211.443207,56.726048 
	C217.793427,57.159760 223.769012,58.377029 229.763611,59.468166 
	C231.210083,59.731449 232.703690,60.076050 233.574188,61.999542 
	C233.615997,62.698849 233.572693,62.980106 233.295502,63.618439 
z"/>
<path fill="#0A92CE" opacity="1.000000" stroke="none" 
	d="
M227.184891,90.787491 
	C217.515427,89.646210 207.965515,88.286240 197.941406,86.883942 
	C198.226608,83.779816 198.986008,80.718018 199.936264,77.328255 
	C201.990646,75.674301 204.005966,76.410965 205.926804,76.688187 
	C212.185837,77.591507 218.382141,78.908592 224.670502,79.622581 
	C227.298798,79.920998 229.082672,81.014679 229.339386,84.326973 
	C229.461975,86.306473 229.340897,87.802193 228.260696,89.503387 
	C227.630661,89.990532 227.419281,90.238525 227.184891,90.787491 
z"/>
<path fill="#BA5E51" opacity="1.000000" stroke="none" 
	d="
M298.900269,119.187836 
	C308.255798,120.006058 317.270172,121.013458 326.723328,122.039162 
	C326.325836,125.891335 324.095978,129.132736 322.346497,132.911621 
	C313.774567,131.864014 305.479584,130.731857 296.692688,130.425949 
	C294.143372,127.708641 296.171051,125.293114 296.821564,122.433838 
	C297.401306,121.113014 297.853027,120.169762 298.900269,119.187836 
z"/>
<path fill="#0F88C7" opacity="1.000000" stroke="none" 
	d="
M228.464493,84.986061 
	C228.316986,82.140381 227.211472,81.220245 224.162964,80.868271 
	C216.371002,79.968613 208.655380,78.407845 200.518188,77.055901 
	C200.872147,73.436333 202.757202,70.351509 204.562668,66.891464 
	C206.129059,70.098480 209.359009,68.910103 211.717041,69.290672 
	C217.650940,70.248344 223.456375,72.358147 229.901535,71.508690 
	C230.191925,71.371544 230.582687,71.263954 230.769165,71.184608 
	C232.199219,76.012756 230.917755,80.544487 228.464493,84.986061 
z"/>
<path fill="#1970B6" opacity="1.000000" stroke="none" 
	d="
M233.430573,63.026802 
	C231.526840,59.426323 227.985535,60.838676 225.429733,60.129181 
	C221.092590,58.925190 216.415054,59.099819 211.957733,56.871254 
	C214.334915,52.579769 217.783600,49.476601 221.874298,46.601284 
	C227.672592,46.251129 233.034958,46.746712 238.193848,49.905861 
	C238.933197,55.241726 236.342514,59.125057 233.430573,63.026802 
z"/>
<path fill="#2165AE" opacity="1.000000" stroke="none" 
	d="
M238.447205,51.240120 
	C235.564362,47.805523 231.399399,49.529476 228.212830,48.098373 
	C226.625092,47.385307 224.783615,47.237221 222.612839,46.656628 
	C229.884521,39.459629 239.214432,35.723133 249.177505,33.367378 
	C252.076309,32.681957 255.080948,32.444210 258.457153,31.982225 
	C258.978729,32.199810 259.144806,32.375214 259.530090,32.586979 
	C251.240631,37.207218 244.707550,43.877865 238.447205,51.240120 
z"/>
<path fill="#B35852" opacity="1.000000" stroke="none" 
	d="
M296.101654,130.012726 
	C302.128998,127.466919 307.723297,130.395874 313.351410,130.546005 
	C315.927948,130.614746 319.429871,129.685806 321.870209,132.772110 
	C320.317841,135.795944 318.579254,138.470352 316.561951,141.364761 
	C314.382843,138.776337 311.138855,139.887268 308.611206,139.296967 
	C304.207977,138.268631 299.540771,138.370514 294.556702,137.997192 
	C294.095886,137.795944 294.062561,137.596115 293.950623,137.102783 
	C293.779449,136.615768 293.686859,136.422287 293.606201,135.906586 
	C293.685303,135.154465 293.760468,134.725937 293.896912,133.969177 
	C294.231995,132.278641 294.629211,130.975800 296.101654,130.012726 
z"/>
<path fill="#181D1C" opacity="1.000000" stroke="none" 
	d="
M434.707855,204.185287 
	C434.707855,209.651184 434.603943,214.644394 434.756348,219.629791 
	C434.822205,221.782944 433.395966,224.958374 437.595215,225.169815 
	C437.872803,225.183792 438.267822,226.205048 438.313293,226.781067 
	C438.402710,227.912766 437.521027,228.041183 436.646790,228.043945 
	C434.817108,228.049728 432.970917,228.199997 431.162872,228.003006 
	C429.663116,227.839600 427.503235,229.116699 426.775574,227.053207 
	C425.968109,224.763382 428.400482,225.303421 429.499390,224.599442 
	C430.568604,223.914474 430.130127,222.471268 430.135803,221.343674 
	C430.163361,215.854767 430.235168,210.363647 430.110046,204.877472 
	C430.052032,202.331543 431.426666,199.074341 427.289154,198.057068 
	C426.410583,197.841049 426.537476,196.646362 426.714020,195.849411 
	C426.957764,194.749146 427.948425,194.979324 428.722839,194.962845 
	C430.385468,194.927429 432.065094,194.808716 433.708099,194.991302 
	C435.243958,195.161987 437.388000,193.966797 438.209015,195.815079 
	C439.198242,198.042130 436.835480,198.208420 435.524841,199.090652 
	C433.860870,200.210754 435.007996,202.158035 434.707855,204.185287 
z"/>
<path fill="#130505" opacity="1.000000" stroke="none" 
	d="
M191.260437,228.015564 
	C189.637711,227.723801 187.904388,228.771408 187.354919,227.102402 
	C186.737839,225.228043 188.329803,225.143311 189.680847,224.833786 
	C191.551178,224.405289 190.906479,222.727539 190.917435,221.534180 
	C190.976913,215.062286 190.906921,208.589172 190.971298,202.117371 
	C190.988907,200.347946 190.979248,198.835922 188.758377,198.436111 
	C187.663239,198.238983 187.105301,197.451706 187.211502,196.266891 
	C187.345474,194.772171 188.507507,195.022659 189.420074,195.004517 
	C191.908493,194.954987 194.399033,194.958252 196.887665,195.002090 
	C197.809982,195.018341 198.969437,194.770248 199.032608,196.320099 
	C199.080185,197.487686 198.612778,198.277878 197.461731,198.441833 
	C194.867798,198.811295 195.141251,200.679062 195.153229,202.521790 
	C195.189880,208.164185 195.072357,213.809311 195.212097,219.448486 
	C195.269257,221.755096 193.800568,225.165466 198.350266,225.197189 
	C198.567780,225.198715 198.898788,226.281754 198.961838,226.883698 
	C199.049973,227.725113 198.365036,227.956039 197.681274,227.969376 
	C195.690613,228.008179 193.699097,228.003311 191.260437,228.015564 
z"/>
<path fill="#130505" opacity="1.000000" stroke="none" 
	d="
M128.922745,195.781860 
	C121.254845,204.147629 126.829399,214.009766 125.208496,222.836670 
	C124.871643,224.671082 126.329071,224.930359 127.757553,225.029678 
	C128.823105,225.103775 129.036224,225.876572 129.007950,226.778915 
	C128.971481,227.942139 128.107880,227.981400 127.286659,227.994919 
	C125.461357,228.024963 123.623596,228.140533 121.813263,227.975708 
	C120.296143,227.837585 118.111366,228.978378 117.396156,227.084946 
	C116.541428,224.822205 118.975739,225.302612 120.141449,224.681458 
	C121.386284,224.018143 120.921776,222.630081 120.927879,221.535492 
	C120.963951,215.062363 120.906517,208.588531 120.971535,202.115860 
	C120.989334,200.344574 120.975449,198.835312 118.756340,198.435303 
	C117.660141,198.237717 117.072411,197.444916 117.219444,196.265106 
	C117.447258,194.437256 118.924133,195.014038 119.920410,195.021133 
	C122.888794,195.042313 125.855995,195.229675 128.922745,195.781860 
z"/>
<path fill="#070312" opacity="1.000000" stroke="none" 
	d="
M248.371460,198.428741 
	C245.484818,198.957657 246.070969,200.879852 246.063110,202.440857 
	C246.034622,208.100189 245.953110,213.762329 246.099854,219.417999 
	C246.159622,221.721909 244.656204,225.136276 249.200012,225.229507 
	C249.446182,225.234558 249.801437,226.289108 249.873764,226.883392 
	C249.978287,227.741943 249.257843,227.946167 248.586487,227.961441 
	C246.590210,228.006851 244.578583,228.151215 242.600372,227.965286 
	C241.104950,227.824738 238.923492,229.067337 238.229904,227.021240 
	C237.434280,224.674118 239.943939,225.329498 241.049637,224.664246 
	C242.252014,223.940796 241.810120,222.584457 241.817642,221.478806 
	C241.853851,216.152481 241.953033,210.822021 241.785782,205.500717 
	C241.697388,202.688141 243.386795,198.937164 238.623398,197.938324 
	C238.333603,197.877548 238.124847,196.804260 238.109177,196.196136 
	C238.079193,195.033539 239.032089,195.013275 239.844528,195.007095 
	C242.673752,194.985504 245.547623,194.699799 248.319168,195.102249 
	C250.675430,195.444412 250.672241,196.905243 248.371460,198.428741 
z"/>
<path fill="#070312" opacity="1.000000" stroke="none" 
	d="
M353.834229,213.956390 
	C353.834229,210.141052 353.815002,206.815475 353.840881,203.490265 
	C353.858582,201.218765 354.391876,198.756516 351.053650,198.205017 
	C350.054901,198.040024 350.043243,197.041214 350.083954,196.196106 
	C350.140015,195.031906 351.030670,195.021729 351.842804,195.006714 
	C353.671143,194.972931 355.513489,194.853104 357.325195,195.027573 
	C358.842773,195.173721 360.979828,193.999100 361.766815,195.897263 
	C362.752014,198.273590 360.298431,198.299408 358.927124,198.965210 
	C357.491821,199.662094 358.090515,200.994675 358.081146,202.044693 
	C358.023315,208.528732 358.045258,215.013550 358.057190,221.498077 
	C358.060181,223.117554 357.670624,225.001404 360.296417,224.990463 
	C361.561676,224.985199 362.028076,225.764282 361.891571,226.951035 
	C361.754242,228.145126 360.776215,227.984146 360.018829,227.992905 
	C357.193085,228.025620 354.365631,228.030823 351.540649,227.965973 
	C349.751465,227.924896 349.623627,225.952728 350.422211,225.726196 
	C356.430908,224.021698 352.864380,219.221329 353.815826,215.937408 
	C353.949158,215.477219 353.834229,214.945114 353.834229,213.956390 
z"/>
<path fill="#0F88C7" opacity="1.000000" stroke="none" 
	d="
M390.380890,202.740662 
	C390.003021,200.570419 390.013000,198.284912 390.007996,195.571747 
	C392.153992,197.440598 390.688538,200.113144 390.380890,202.740662 
z"/>
<path fill="#FCFDFD" opacity="1.000000" stroke="none" 
	d="
M228.565186,103.668213 
	C227.739563,100.991554 228.750137,100.051758 231.417496,100.089447 
	C240.732986,100.221062 250.052780,100.227570 259.368073,100.089180 
	C262.266815,100.046112 263.059875,101.148857 263.025574,103.895355 
	C262.903076,113.710327 262.870148,123.529594 263.038544,133.343201 
	C263.093414,136.542389 261.794678,137.272110 258.907196,137.210739 
	C251.922363,137.062332 244.929337,137.047928 237.945679,137.222290 
	C235.322891,137.287766 234.048737,136.363007 233.313538,133.904800 
	C231.933975,129.292160 230.509415,124.704140 229.922470,119.497055 
	C234.230530,114.292061 238.580841,109.487358 243.749298,103.779068 
	C238.055099,103.779068 233.533936,103.779068 228.565186,103.668213 
z"/>
<path fill="#FEFEFE" opacity="1.000000" stroke="none" 
	d="
M298.595795,95.050888 
	C299.508881,97.668449 298.067200,98.166115 295.882507,98.153999 
	C286.750458,98.103355 277.617401,98.076691 268.485992,98.168114 
	C265.974518,98.193245 264.909149,97.395851 264.950928,94.751373 
	C265.068787,87.281334 265.073547,79.806839 264.947327,72.337051 
	C264.902618,69.692078 265.927582,68.884567 268.458557,68.919930 
	C276.095001,69.026642 283.741333,69.152893 291.368469,68.864906 
	C294.727325,68.738098 296.199524,69.910355 296.664429,73.055382 
	C296.929565,74.849220 297.502289,76.597595 298.043640,78.756073 
	C293.681213,84.204468 289.211670,89.263229 284.126129,95.019196 
	C289.304474,95.019196 293.713745,95.019196 298.595795,95.050888 
z"/>
<path fill="#FCFDFD" opacity="1.000000" stroke="none" 
	d="
M294.589447,135.548676 
	C294.437256,135.973694 294.305511,136.128143 294.022888,136.545929 
	C285.224640,136.923721 276.576874,137.015427 267.930176,137.168915 
	C265.813965,137.206482 264.959259,136.319061 264.968781,134.202148 
	C265.015198,123.881050 265.032867,113.559303 264.955170,103.238579 
	C264.936798,100.794418 266.006561,100.099419 268.267578,100.115631 
	C277.589569,100.182472 286.912384,100.160088 296.234772,100.132233 
	C298.675842,100.124939 299.861298,100.754036 299.465332,103.659203 
	C298.950806,107.434128 299.046021,111.292160 298.803467,115.890274 
	C298.202118,118.243225 298.682037,119.891342 298.170532,121.757004 
	C297.416748,124.439445 296.880463,126.849709 296.395447,129.623123 
	C295.938019,131.361008 295.429291,132.735733 294.927429,134.476776 
	C294.826172,134.988113 294.718018,135.133102 294.589447,135.548676 
z"/>
<path fill="#FEFEFE" opacity="1.000000" stroke="none" 
	d="
M228.094009,85.409317 
	C228.940430,80.618004 229.844925,76.229515 230.852524,71.473145 
	C232.070023,69.483154 233.507248,68.867424 235.566437,68.902626 
	C243.378510,69.036156 251.196564,69.066109 259.007385,68.900505 
	C261.999176,68.837074 263.117706,69.723068 263.032562,72.837791 
	C262.837250,79.981758 262.838501,87.138268 263.031219,94.282372 
	C263.116394,97.439842 261.880432,98.242035 258.948547,98.185745 
	C251.137085,98.035751 243.320724,98.162300 235.506516,98.129105 
	C226.612000,98.091324 228.227264,98.870705 228.027618,90.286743 
	C228.009750,88.487267 228.080917,87.149704 228.094009,85.409317 
z"/>
<path fill="#FCFDFD" opacity="1.000000" stroke="none" 
	d="
M238.044373,51.570232 
	C243.160370,43.915382 248.105988,36.473259 257.090332,33.324097 
	C257.708252,33.107510 258.353363,32.968506 259.335236,32.738987 
	C262.127258,32.748035 263.067627,33.872860 263.029236,36.426792 
	C262.893951,45.424454 262.956726,54.425457 262.991333,63.425014 
	C262.999115,65.443924 262.855377,67.005119 260.148895,66.974205 
	C251.983627,66.880959 243.816559,66.935219 235.650223,66.946518 
	C234.184128,66.948547 232.933899,66.762611 233.094238,64.399933 
	C233.061630,63.975517 233.100159,63.491360 233.058960,63.251823 
	C234.678772,59.314571 236.339783,55.616856 238.044373,51.570232 
z"/>
<path fill="#FCFDFD" opacity="1.000000" stroke="none" 
	d="
M292.024689,140.776703 
	C288.334991,149.643661 283.600739,157.398056 275.331055,162.821960 
	C274.819855,163.240128 274.564148,163.451004 274.039917,163.687393 
	C273.797455,163.744537 273.452087,163.907227 273.277832,163.983887 
	C264.980072,166.198181 264.979614,166.198181 264.980255,157.531677 
	C264.980621,152.541672 264.990051,147.551666 264.980316,142.561676 
	C264.976868,140.806717 264.999542,139.159927 267.467896,139.175125 
	C275.117706,139.222244 282.768036,139.202057 290.417236,139.290436 
	C290.916382,139.296204 291.407562,139.997009 292.024689,140.776703 
z"/>
<path fill="#FCFDFD" opacity="1.000000" stroke="none" 
	d="
M246.008820,159.007919 
	C246.304565,155.121674 242.455017,153.686218 241.077164,150.745575 
	C239.487320,147.352570 235.384842,143.842682 236.874115,140.714951 
	C238.066223,138.211304 243.265411,140.011597 246.677063,139.831802 
	C249.994797,139.656937 253.359070,140.076843 256.648804,139.726929 
	C261.468475,139.214264 263.654480,140.488586 263.093018,145.875946 
	C262.561340,150.977325 262.714783,156.195251 263.057892,161.329102 
	C263.360413,165.855637 261.671234,166.153381 257.872498,165.116150 
	C253.528397,163.929977 250.809036,160.197388 246.342316,158.889862 
	C245.980743,158.986115 246.003601,158.996490 246.008820,159.007919 
z"/>
<path fill="#BA5E51" opacity="1.000000" stroke="none" 
	d="
M299.730957,115.943924 
	C299.952698,116.163483 299.874268,116.424118 299.611572,116.832657 
	C299.203339,116.931305 298.912903,116.862076 298.824585,116.393188 
	C299.026703,115.993546 298.996216,116.006256 299.005524,116.021530 
	C299.014832,116.036804 299.497131,116.004982 299.730957,115.943924 
z"/>
<path fill="#B3B5B8" opacity="1.000000" stroke="none" 
	d="
M274.066040,163.748627 
	C274.043396,163.515762 274.289337,163.286972 274.792358,163.027908 
	C274.811218,163.249313 274.572906,163.501007 274.066040,163.748627 
z"/>
<path fill="#F2F6F5" opacity="1.000000" stroke="none" 
	d="
M415.508179,200.872345 
	C416.579620,203.821243 417.094086,206.538712 414.695709,208.516373 
	C411.575958,211.088898 407.739197,209.873428 404.196289,209.850494 
	C402.489136,209.839447 402.973175,208.088181 403.090240,207.107590 
	C403.428650,204.272690 401.455017,199.993179 404.121399,198.907562 
	C407.465271,197.546097 411.933289,197.392609 415.508179,200.872345 
z"/>
<path fill="#F2F6F5" opacity="1.000000" stroke="none" 
	d="
M457.193207,201.710815 
	C459.115143,205.849182 460.710968,210.125702 462.443573,214.768753 
	C458.702118,214.768753 455.499359,214.768753 451.709198,214.768753 
	C453.500061,210.282974 455.183594,206.065979 457.193207,201.710815 
z"/>
<path fill="#F2F6F5" opacity="1.000000" stroke="none" 
	d="
M98.167557,214.999054 
	C96.430862,214.999054 95.113388,214.999054 93.229767,214.999054 
	C95.016739,210.164261 96.650497,205.744019 98.665543,200.292160 
	C100.633194,205.699570 102.252663,210.150131 104.017090,214.999054 
	C101.887993,214.999054 100.237389,214.999054 98.167557,214.999054 
z"/>
<path fill="#B3B5B8" opacity="1.000000" stroke="none" 
	d="
M298.744537,116.257324 
	C299.110931,116.158287 299.195160,116.323021 299.386566,116.744156 
	C299.388641,117.440178 299.283539,117.879807 299.209930,118.659042 
	C298.990570,119.868080 298.739716,120.737511 298.220947,121.818062 
	C298.122833,120.193161 298.292603,118.357140 298.744537,116.257324 
z"/>
<path fill="#AC5657" opacity="1.000000" stroke="none" 
	d="
M294.679138,135.679443 
	C294.401428,135.561600 294.413483,135.312546 294.769775,134.957596 
	C294.949219,135.088501 294.900879,135.320694 294.679138,135.679443 
z"/>
</svg>